mtllib erj195.mtl

v -0.291183 -0.947359 -13.963750
v -0.291183 -0.946911 -13.982420
v -0.000519 -0.992727 -13.982420
v -0.000650 -0.993162 -13.963750
v 0.002077 -0.984102 -14.352850
v -0.373222 -0.925100 -14.352850
v -0.367403 -0.908961 -14.589350
v 0.000359 -0.966001 -14.589350
v 0.000359 -0.966001 -14.589350
v -0.367403 -0.908961 -14.589350
v -0.346645 -0.886940 -15.167450
v 0.000359 -0.938650 -15.167450
v 0.000359 -0.938650 -15.167450
v -0.346645 -0.886940 -15.167450
v -0.309976 -0.824150 -15.870350
v 0.002850 -0.865680 -15.870350
v -0.000519 -0.992727 -13.982420
v -0.291183 -0.946911 -13.982420
v -0.291183 -0.947359 -13.963750
v -0.385116 -0.932550 -13.963750
v -0.373222 -0.925100 -14.352850
v 0.002077 -0.984102 -14.352850
v 0.001976 -0.924748 -14.352750
v -0.373321 -0.865749 -14.352750
v -0.385216 -0.873199 -13.963650
v -0.291283 -0.888007 -13.963650
v -0.291283 -0.887560 -13.982320
v -0.000620 -0.933375 -13.982320
v 0.002750 -0.806329 -15.870250
v -0.310078 -0.764798 -15.870250
v -0.346746 -0.827590 -15.167350
v 0.000259 -0.879299 -15.167350
v 0.000259 -0.879299 -15.167350
v -0.346746 -0.827590 -15.167350
v -0.367504 -0.849608 -14.589250
v 0.000259 -0.906649 -14.589250
v 0.000259 -0.906649 -14.589250
v -0.367504 -0.849608 -14.589250
v -0.373321 -0.865749 -14.352750
v 0.001976 -0.924748 -14.352750
v -0.000749 -0.933808 -13.963650
v -0.000620 -0.933375 -13.982320
v -0.291283 -0.887560 -13.982320
v -0.291283 -0.888007 -13.963650
v -0.000519 -0.992727 -13.982420
v 0.002077 -0.984102 -14.352850
v 0.001976 -0.924748 -14.352750
v -0.000620 -0.933375 -13.982320
v -0.385116 -0.932550 -13.963750
v -0.291183 -0.947359 -13.963750
v -0.291283 -0.888007 -13.963650
v -0.385216 -0.873199 -13.963650
v -0.373222 -0.925100 -14.352850
v -0.385116 -0.932550 -13.963750
v -0.385216 -0.873199 -13.963650
v -0.373321 -0.865749 -14.352750
v 0.000359 -0.938650 -15.167450
v 0.002850 -0.865680 -15.870350
v 0.002750 -0.806329 -15.870250
v 0.000259 -0.879299 -15.167350
v -0.309976 -0.824150 -15.870350
v -0.346645 -0.886940 -15.167450
v -0.346746 -0.827590 -15.167350
v -0.310078 -0.764798 -15.870250
v 0.002850 -0.865680 -15.870350
v -0.309976 -0.824150 -15.870350
v -0.310078 -0.764798 -15.870250
v 0.002750 -0.806329 -15.870250
v 0.000359 -0.966001 -14.589350
v 0.000359 -0.938650 -15.167450
v 0.000259 -0.879299 -15.167350
v 0.000259 -0.906649 -14.589250
v -0.346645 -0.886940 -15.167450
v -0.367403 -0.908961 -14.589350
v -0.367504 -0.849608 -14.589250
v -0.346746 -0.827590 -15.167350
v 0.002077 -0.984102 -14.352850
v 0.000359 -0.966001 -14.589350
v 0.000259 -0.906649 -14.589250
v 0.001976 -0.924748 -14.352750
v -0.367403 -0.908961 -14.589350
v -0.373222 -0.925100 -14.352850
v -0.373321 -0.865749 -14.352750
v -0.367504 -0.849608 -14.589250
v -0.291183 -0.947359 -13.963750
v -0.000650 -0.993162 -13.963750
v -0.000749 -0.933808 -13.963650
v -0.291283 -0.888007 -13.963650
v -0.000650 -0.993162 -13.963750
v -0.000519 -0.992727 -13.982420
v -0.000620 -0.933375 -13.982320
v -0.000749 -0.933808 -13.963650

vt 0.180803 0.953217
vt 0.180368 0.953193
vt 0.180368 0.955621
vt 0.180803 0.955644
vt 0.171725 0.955164
vt 0.171725 0.952037
vt 0.166206 0.951182
vt 0.166206 0.954205
vt 0.166206 0.954205
vt 0.166206 0.951182
vt 0.152718 0.950014
vt 0.152718 0.952755
vt 0.152718 0.952755
vt 0.152718 0.950014
vt 0.136318 0.946687
vt 0.136318 0.948888
vt 0.180368 0.955621
vt 0.180368 0.953193
vt 0.180803 0.953217
vt 0.180803 0.952432
vt 0.171725 0.952037
vt 0.171725 0.955164
vt 0.171727 0.952018
vt 0.171727 0.948891
vt 0.180806 0.949286
vt 0.180806 0.950071
vt 0.180370 0.950047
vt 0.180370 0.952476
vt 0.136320 0.945742
vt 0.136320 0.943541
vt 0.152720 0.946869
vt 0.152720 0.949610
vt 0.152720 0.949610
vt 0.152720 0.946869
vt 0.166209 0.948036
vt 0.166209 0.951059
vt 0.166209 0.951059
vt 0.166209 0.948036
vt 0.171727 0.948891
vt 0.171727 0.952018
vt 0.180806 0.952499
vt 0.180370 0.952476
vt 0.180370 0.950047
vt 0.180806 0.950071
vt 0.799853 0.549686
vt 0.808518 0.549232
vt 0.808516 0.546111
vt 0.799851 0.546565
vt 0.180803 0.952432
vt 0.180803 0.953217
vt 0.180806 0.950071
vt 0.180806 0.949286
vt 0.171725 0.952037
vt 0.180803 0.952432
vt 0.180806 0.949286
vt 0.171727 0.948891
vt 0.827574 0.546842
vt 0.844016 0.543005
vt 0.844013 0.539884
vt 0.827571 0.543721
vt 0.136318 0.946687
vt 0.152718 0.950014
vt 0.152720 0.946869
vt 0.136320 0.943541
vt 0.136318 0.948888
vt 0.136318 0.946687
vt 0.136320 0.943541
vt 0.136320 0.945742
vt 0.814051 0.548281
vt 0.827574 0.546842
vt 0.827571 0.543721
vt 0.814048 0.545160
vt 0.152718 0.950014
vt 0.166206 0.951182
vt 0.166209 0.948036
vt 0.152720 0.946869
vt 0.808518 0.549232
vt 0.814051 0.548281
vt 0.814048 0.545160
vt 0.808516 0.546111
vt 0.166206 0.951182
vt 0.171725 0.952037
vt 0.171727 0.948891
vt 0.166209 0.948036
vt 0.180803 0.953217
vt 0.180803 0.955644
vt 0.180806 0.952499
vt 0.180806 0.950071
vt 0.799417 0.549709
vt 0.799853 0.549686
vt 0.799851 0.546565
vt 0.799414 0.546588

vn -0.155659 -0.987526 -0.023707
vn -0.154913 -0.985370 -0.071056
vn -0.153126 -0.987266 -0.043104
vn -0.146715 -0.984548 -0.095603
vn 0.155659 0.987526 0.023707
vn 0.155257 0.987591 0.023656
vn 0.131010 0.986820 0.094990
vn 0.147252 0.988167 0.042924
vn 0.152882 0.985688 0.071031
vn 0.155654 0.987520 0.024005
vn 0.999974 0.001690 0.007047
vn -0.000266 -0.001685 0.999999
vn -0.999531 -0.001633 -0.030585
vn 0.999992 0.001679 0.003718
vn -0.998633 -0.001611 -0.052241
vn 0.000224 0.001685 -0.999999
vn 0.999999 0.001685 0.000080
vn -0.999352 -0.001640 -0.035946
vn 0.999973 0.001697 -0.007134
vn -0.999693 -0.001626 -0.024708
vn -0.000266 -0.001685 0.999999
vn 0.999974 0.001690 0.007056

usemtl mat1
f 1/1/1 2/2/1 3/3/1
f 1/1/1 3/3/1 4/4/1
f 5/5/2 6/6/2 7/7/2
f 5/5/2 7/7/2 8/8/2
f 9/9/3 10/10/3 11/11/3
f 9/9/3 11/11/3 12/12/3
f 13/13/4 14/14/4 15/15/4
f 13/13/4 15/15/4 16/16/4
f 17/17/5 18/18/5 19/19/5
f 17/17/5 19/19/5 20/20/5
f 17/17/5 20/20/5 21/21/5
f 17/17/5 21/21/5 22/22/5
f 23/23/6 24/24/6 25/25/6
f 23/23/6 25/25/6 26/26/6
f 23/23/6 26/26/6 27/27/6
f 23/23/6 27/27/6 28/28/6
f 29/29/7 30/30/7 31/31/7
f 29/29/7 31/31/7 32/32/7
f 33/33/8 34/34/8 35/35/8
f 33/33/8 35/35/8 36/36/8
f 37/37/9 38/38/9 39/39/9
f 37/37/9 39/39/9 40/40/9
f 41/41/10 42/42/10 43/43/10
f 41/41/10 43/43/10 44/44/10
f 45/45/11 46/46/11 47/47/11
f 45/45/11 47/47/11 48/48/11
f 49/49/12 50/50/12 51/51/12
f 49/49/12 51/51/12 52/52/12
f 53/53/13 54/54/13 55/55/13
f 53/53/13 55/55/13 56/56/13
f 57/57/14 58/58/14 59/59/14
f 57/57/14 59/59/14 60/60/14
f 61/61/15 62/62/15 63/63/15
f 61/61/15 63/63/15 64/64/15
f 65/65/16 66/66/16 67/67/16
f 65/65/16 67/67/16 68/68/16
f 69/69/17 70/70/17 71/71/17
f 69/69/17 71/71/17 72/72/17
f 73/73/18 74/74/18 75/75/18
f 73/73/18 75/75/18 76/76/18
f 77/77/19 78/78/19 79/79/19
f 77/77/19 79/79/19 80/80/19
f 81/81/20 82/82/20 83/83/20
f 81/81/20 83/83/20 84/84/20
f 85/85/21 86/86/21 87/87/21
f 85/85/21 87/87/21 88/88/21
f 89/89/22 90/90/22 91/91/22
f 89/89/22 91/91/22 92/92/22

