mtllib erj195.mtl

v -11.929440 0.664547 2.896823
v -11.929440 0.750886 2.896823
v -9.400440 0.523126 2.077332
v -9.400440 0.397731 2.077332
v -9.400440 0.397731 2.077332
v -9.400440 0.523126 2.077332
v -11.929440 0.750886 2.896823
v -11.929440 0.664547 2.896823
v -11.929440 0.671226 2.990806
v -11.929440 0.672917 3.011146
v -11.929440 0.729561 2.990806
v -11.929440 0.664547 2.896823
v -11.929440 0.664547 2.896823
v -11.929440 0.729561 2.990806
v -11.929440 0.672917 3.011146
v -11.929440 0.671226 2.990806
v -11.929440 0.672917 3.011146
v -11.929440 0.686265 3.188124
v -11.929440 0.691131 3.167784
v -11.929440 0.691131 3.167784
v -11.929440 0.686265 3.188124
v -11.929440 0.672917 3.011146
v -9.400440 0.406742 2.196669
v -9.400440 0.397731 2.077332
v -9.400440 0.523126 2.077332
v -9.400440 0.493974 2.196669
v -9.400440 0.429236 2.471252
v -9.400440 0.429236 2.471252
v -9.400440 0.493974 2.196669
v -9.400440 0.523126 2.077332
v -9.400440 0.397731 2.077332
v -9.400440 0.406742 2.196669
v -9.400440 0.429236 2.471252
v -9.400440 0.493974 2.196669
v -11.929440 0.729561 2.990806
v -11.929440 0.691131 3.167784
v -11.929440 0.686265 3.188124
v -9.400440 0.406742 2.196669
v -11.929440 0.671226 2.990806
v -11.929440 0.664547 2.896823
v -9.400440 0.397731 2.077332
v -11.929440 0.750886 2.896823
v -11.929440 0.729561 2.990806
v -9.400440 0.493974 2.196669
v -9.400440 0.523126 2.077332
v -9.400440 0.429236 2.471252
v -11.929440 0.686265 3.188124
v -11.929440 0.672917 3.011146
v -11.929440 0.671226 2.990806
v -9.400440 0.406742 2.196669

vt 0.240700 0.771092
vt 0.240700 0.771092
vt 0.417419 0.713321
vt 0.417419 0.713321
vt 0.417419 0.713321
vt 0.417419 0.713321
vt 0.240700 0.771092
vt 0.240700 0.771092
vt 0.240700 0.777718
vt 0.240700 0.779151
vt 0.240700 0.777718
vt 0.240700 0.771092
vt 0.240700 0.771092
vt 0.240700 0.777718
vt 0.240700 0.779151
vt 0.240700 0.777718
vt 0.240700 0.779151
vt 0.240700 0.791627
vt 0.240700 0.790194
vt 0.240700 0.790194
vt 0.240700 0.791627
vt 0.240700 0.779151
vt 0.417419 0.721734
vt 0.417419 0.713321
vt 0.417419 0.713321
vt 0.417419 0.721734
vt 0.417419 0.741091
vt 0.417419 0.741091
vt 0.417419 0.721734
vt 0.417419 0.713321
vt 0.417419 0.713321
vt 0.417419 0.721734
vt 0.417419 0.741091
vt 0.417419 0.721734
vt 0.240700 0.777718
vt 0.240700 0.790194
vt 0.240700 0.791627
vt 0.417419 0.721734
vt 0.240700 0.777718
vt 0.240700 0.771092
vt 0.417419 0.713321
vt 0.240700 0.771092
vt 0.240700 0.777718
vt 0.417419 0.721734
vt 0.417419 0.713321
vt 0.417419 0.741091
vt 0.240700 0.791627
vt 0.240700 0.779151
vt 0.240700 0.777718
vt 0.417419 0.721734

vn -0.308258 0.000000 -0.951303
vn 0.308258 0.000000 0.951303
vn -1.000000 0.000000 0.000000
vn 1.000000 0.000000 0.000000
vn -1.000000 0.000000 0.000000
vn 1.000000 -0.000000 0.000000
vn 1.000000 0.000000 -0.000000
vn 1.000000 0.000000 0.000000
vn 0.160614 0.960678 0.226498
vn -0.081783 -0.994143 0.070650
vn 0.158307 0.962913 0.218488
vn -0.079771 -0.993990 0.074969

usemtl mat1
f 1/1/1 2/2/1 3/3/1
f 1/1/1 3/3/1 4/4/1
f 5/5/2 6/6/2 7/7/2
f 5/5/2 7/7/2 8/8/2
f 9/9/3 10/10/3 11/11/3
f 9/9/3 11/11/3 12/12/3
f 13/13/4 14/14/4 15/15/4
f 13/13/4 15/15/4 16/16/4
f 17/17/5 18/18/5 19/19/5
f 20/20/6 21/21/6 22/22/6
f 23/23/7 24/24/7 25/25/7
f 23/23/7 25/25/7 26/26/7
f 23/23/7 26/26/7 27/27/7
f 28/28/8 29/29/8 30/30/8
f 28/28/8 30/30/8 31/31/8
f 28/28/8 31/31/8 32/32/8
f 33/33/9 34/34/9 35/35/9
f 33/33/9 35/35/9 36/36/9
f 33/33/9 36/36/9 37/37/9
f 38/38/10 39/39/10 40/40/10
f 38/38/10 40/40/10 41/41/10
f 42/42/11 43/43/11 44/44/11
f 42/42/11 44/44/11 45/45/11
f 46/46/12 47/47/12 48/48/12
f 46/46/12 48/48/12 49/49/12
f 46/46/12 49/49/12 50/50/12

