mtllib erj195.mtl

v 0.011700 8.263180 19.407560
v 0.051490 8.263180 18.947830
v 0.037810 8.316050 19.025470
v 0.011700 8.316050 19.423090
v 0.011700 8.316050 19.423090
v 0.037810 8.316050 19.025470
v 0.011700 8.343890 19.135670
v -0.028100 8.263180 18.947830
v 0.011700 8.263180 19.407560
v 0.011700 8.316050 19.423090
v -0.014410 8.316050 19.025470
v -0.014410 8.316050 19.025470
v 0.011700 8.316050 19.423090
v 0.011700 8.343890 19.135670
v -0.126348 2.554050 16.362041
v -0.105990 3.121560 16.795090
v -0.127191 3.121560 16.418232
v -0.137133 2.569770 16.172306
v 0.129380 3.121560 16.795090
v 0.149737 2.554050 16.362041
v 0.162195 2.569770 16.172306
v 0.153706 3.121560 16.418232
v 0.149737 2.554050 16.362041
v 0.129380 3.121560 16.795090
v 0.011700 3.121560 18.262890
v 0.011700 2.409700 18.104850
v 0.011700 2.409700 18.104850
v 0.011700 3.121560 18.262890
v -0.105990 3.121560 16.795090
v -0.126348 2.554050 16.362041
v -0.127191 3.121560 16.418232
v -0.105990 3.121560 16.795090
v -0.102440 3.294110 16.901060
v -0.125722 3.294110 16.495140
v -0.125722 3.294110 16.495140
v -0.102440 3.294110 16.901060
v -0.037430 8.140270 18.857270
v -0.050813 8.140270 18.655010
v -0.042557 8.263180 18.709780
v -0.050813 8.140270 18.655010
v -0.037430 8.140270 18.857270
v -0.028100 8.263180 18.947830
v -0.028100 8.263180 18.947830
v -0.014410 8.316050 19.025470
v -0.027867 8.316050 18.733340
v -0.042557 8.263180 18.709780
v -0.027867 8.316050 18.733340
v -0.014410 8.316050 19.025470
v 0.011700 8.343890 19.135670
v 0.011700 8.343890 18.898640
v -0.022787 8.320410 18.735280
v -0.022787 8.320410 18.735280
v 0.011700 8.343890 18.898640
v 0.011700 8.343890 18.745750
v 0.076183 8.140270 18.655010
v 0.060830 8.140270 18.857270
v 0.125830 3.294110 16.901060
v 0.152542 3.294110 16.495140
v 0.011700 8.343890 18.898640
v 0.048026 8.320410 18.735280
v 0.011700 8.343890 18.745750
v 0.153706 3.121560 16.418232
v 0.152542 3.294110 16.495140
v 0.125830 3.294110 16.901060
v 0.129380 3.121560 16.795090
v 0.068080 8.263180 18.709780
v 0.051490 8.263180 18.947830
v 0.060830 8.140270 18.857270
v 0.076183 8.140270 18.655010
v 0.068080 8.263180 18.709780
v 0.053254 8.316050 18.733340
v 0.037810 8.316050 19.025470
v 0.051490 8.263180 18.947830
v 0.048026 8.320410 18.735280
v 0.011700 8.343890 18.898640
v 0.011700 8.343890 19.135670
v 0.037810 8.316050 19.025470
v 0.053254 8.316050 18.733340
v 0.129380 3.121560 16.795090
v 0.125830 3.294110 16.901060
v 0.011700 3.294110 18.297210
v 0.011700 3.121560 18.262890
v 0.125830 3.294110 16.901060
v 0.060830 8.140270 18.857270
v 0.011700 8.140270 19.378350
v 0.011700 3.294110 18.297210
v 0.051490 8.263180 18.947830
v 0.011700 8.263180 19.407560
v 0.011700 8.140270 19.378350
v 0.060830 8.140270 18.857270
v 0.011700 3.121560 18.262890
v 0.011700 3.294110 18.297210
v -0.102440 3.294110 16.901060
v -0.105990 3.121560 16.795090
v -0.102440 3.294110 16.901060
v 0.011700 3.294110 18.297210
v 0.011700 8.140270 19.378350
v -0.037430 8.140270 18.857270
v 0.011700 8.263180 19.407560
v -0.028100 8.263180 18.947830
v -0.037430 8.140270 18.857270
v 0.011700 8.140270 19.378350
v 0.011700 8.343890 18.745750
v 0.048026 8.320410 18.735280
v 0.053254 8.316050 18.733340
v 0.068080 8.263180 18.709780
v 0.076183 8.140270 18.655010
v 0.152542 3.294110 16.495140
v 0.153706 3.121560 16.418232
v 0.162195 2.569770 16.172306
v -0.137133 2.569770 16.172306
v -0.127191 3.121560 16.418232
v -0.125722 3.294110 16.495140
v -0.050813 8.140270 18.655010
v -0.042557 8.263180 18.709780
v -0.027867 8.316050 18.733340
v -0.022787 8.320410 18.735280
v -0.022787 8.320410 18.735280
v -0.027867 8.316050 18.733340
v -0.042557 8.263180 18.709780
v -0.050813 8.140270 18.655010
v -0.125722 3.294110 16.495140
v -0.127191 3.121560 16.418232
v -0.137133 2.569770 16.172306
v 0.162195 2.569770 16.172306
v 0.153706 3.121560 16.418232
v 0.152542 3.294110 16.495140
v 0.076183 8.140270 18.655010
v 0.068080 8.263180 18.709780
v 0.053254 8.316050 18.733340
v 0.048026 8.320410 18.735280
v 0.011700 8.343890 18.745750
v 0.011700 2.409700 18.104850
v -0.126348 2.554050 16.362041
v -0.137133 2.569770 16.172306
v 0.162195 2.569770 16.172306
v 0.149737 2.554050 16.362041
v 0.149737 2.554050 16.362041
v 0.162195 2.569770 16.172306
v -0.137133 2.569770 16.172306
v -0.126348 2.554050 16.362041
v 0.011700 2.409700 18.104850

vt 0.017123 0.079381
vt 0.028490 0.079381
vt 0.026571 0.076742
vt 0.016739 0.076742
vt 0.016739 0.076742
vt 0.026571 0.076742
vt 0.023846 0.075353
vt 0.028490 0.079381
vt 0.017123 0.079381
vt 0.016739 0.076742
vt 0.026571 0.076742
vt 0.026571 0.076742
vt 0.016739 0.076742
vt 0.023846 0.075353
vt 0.887266 0.767171
vt 0.897958 0.738671
vt 0.888653 0.738671
vt 0.882581 0.766382
vt 0.081721 0.336017
vt 0.092429 0.364344
vt 0.097121 0.363559
vt 0.091040 0.336017
vt 0.092429 0.364344
vt 0.081721 0.336017
vt 0.045427 0.336017
vt 0.049335 0.371549
vt 0.930297 0.774421
vt 0.934199 0.738671
vt 0.897958 0.738671
vt 0.887266 0.767171
vt 0.888653 0.738671
vt 0.897958 0.738671
vt 0.900575 0.730005
vt 0.890552 0.730005
vt 0.890552 0.730005
vt 0.900575 0.730005
vt 0.948874 0.486628
vt 0.943880 0.486628
vt 0.945233 0.480455
vt 0.943880 0.486628
vt 0.948874 0.486628
vt 0.951110 0.480455
vt 0.028490 0.079381
vt 0.026571 0.076742
vt 0.033794 0.076742
vt 0.034377 0.079381
vt 0.033794 0.076742
vt 0.026571 0.076742
vt 0.023846 0.075353
vt 0.029707 0.075353
vt 0.033746 0.076524
vt 0.033746 0.076524
vt 0.029707 0.075353
vt 0.033487 0.075353
vt 0.035731 0.085516
vt 0.030730 0.085516
vt 0.079101 0.327405
vt 0.089138 0.327405
vt 0.029707 0.075353
vt 0.033746 0.076524
vt 0.033487 0.075353
vt 0.091040 0.336017
vt 0.089138 0.327405
vt 0.079101 0.327405
vt 0.081721 0.336017
vt 0.034377 0.079381
vt 0.028490 0.079381
vt 0.030730 0.085516
vt 0.035731 0.085516
vt 0.034377 0.079381
vt 0.033794 0.076742
vt 0.026571 0.076742
vt 0.028490 0.079381
vt 0.033746 0.076524
vt 0.029707 0.075353
vt 0.023846 0.075353
vt 0.026571 0.076742
vt 0.033794 0.076742
vt 0.081721 0.336017
vt 0.079101 0.327405
vt 0.044578 0.327405
vt 0.045427 0.336017
vt 0.079101 0.327405
vt 0.030730 0.085516
vt 0.017845 0.085516
vt 0.044578 0.327405
vt 0.028490 0.079381
vt 0.017123 0.079381
vt 0.017845 0.085516
vt 0.030730 0.085516
vt 0.934199 0.738671
vt 0.935046 0.730005
vt 0.900575 0.730005
vt 0.897958 0.738671
vt 0.900575 0.730005
vt 0.935046 0.730005
vt 0.961740 0.486628
vt 0.948874 0.486628
vt 0.017123 0.079381
vt 0.028490 0.079381
vt 0.030730 0.085516
vt 0.017845 0.085516
vt 0.946121 0.476402
vt 0.945862 0.477581
vt 0.945814 0.477800
vt 0.945233 0.480455
vt 0.943880 0.486628
vt 0.890552 0.730005
vt 0.888653 0.738671
vt 0.882581 0.766382
vt 0.882581 0.766382
vt 0.888653 0.738671
vt 0.890552 0.730005
vt 0.943880 0.486628
vt 0.945233 0.480455
vt 0.945814 0.477800
vt 0.945862 0.477581
vt 0.945862 0.477581
vt 0.945814 0.477800
vt 0.945233 0.480455
vt 0.943880 0.486628
vt 0.890552 0.730005
vt 0.888653 0.738671
vt 0.882581 0.766382
vt 0.882581 0.766382
vt 0.888653 0.738671
vt 0.890552 0.730005
vt 0.943880 0.486628
vt 0.945233 0.480455
vt 0.945814 0.477800
vt 0.945862 0.477581
vt 0.946121 0.476402
vt 0.930297 0.774421
vt 0.887266 0.767171
vt 0.882581 0.766382
vt 0.882581 0.766382
vt 0.887266 0.767171
vt 0.887266 0.767171
vt 0.882581 0.766382
vt 0.882581 0.766382
vt 0.887266 0.767171
vt 0.930297 0.774421

vn 0.987816 0.130040 0.085496
vn 0.826502 0.560312 0.054273
vn -0.995954 -0.025327 0.086222
vn -0.826502 0.560312 0.054273
vn -0.998397 -0.007044 0.056167
vn 0.997834 -0.013356 0.064411
vn 0.996484 -0.025218 0.079892
vn -0.996644 -0.017741 0.079912
vn -0.998324 -0.013953 0.056163
vn -0.998312 -0.009721 0.057259
vn -0.997113 0.037577 0.065976
vn -0.981188 0.187691 0.045199
vn -0.797343 0.602407 0.036730
vn -0.562783 0.826605 0.000000
vn 0.996984 -0.017177 0.075679
vn 0.542847 0.839832 0.000000
vn 0.997588 -0.022530 0.065649
vn 0.997279 0.024573 0.069502
vn 0.967289 0.248469 0.051136
vn 0.542847 0.839832 0.000000
vn 0.996241 -0.029518 0.081439
vn 0.995285 -0.024530 0.093840
vn 0.996066 -0.020488 0.086210
vn -0.996544 -0.016204 0.081471
vn -0.996510 -0.018175 0.081468
vn -0.996201 0.012077 0.086244
vn -0.002516 0.404006 -0.914753
vn 0.000687 -0.407195 0.913341
vn 0.001174 -0.996579 -0.082636
vn -0.000000 0.996585 0.082569

usemtl mat1_blank195
f 1/1/1 2/2/1 3/3/1
f 1/1/1 3/3/1 4/4/1
f 5/5/2 6/6/2 7/7/2
f 8/8/3 9/9/3 10/10/3
f 8/8/3 10/10/3 11/11/3
f 12/12/4 13/13/4 14/14/4
f 15/15/5 16/16/5 17/17/5
f 15/15/5 17/17/5 18/18/5
f 19/19/6 20/20/6 21/21/6
f 19/19/6 21/21/6 22/22/6
f 23/23/7 24/24/7 25/25/7
f 23/23/7 25/25/7 26/26/7
f 27/27/8 28/28/8 29/29/8
f 27/27/8 29/29/8 30/30/8
f 31/31/9 32/32/9 33/33/9
f 31/31/9 33/33/9 34/34/9
f 35/35/10 36/36/10 37/37/10
f 35/35/10 37/37/10 38/38/10
f 39/39/11 40/40/11 41/41/11
f 39/39/11 41/41/11 42/42/11
f 43/43/12 44/44/12 45/45/12
f 43/43/12 45/45/12 46/46/12
f 47/47/13 48/48/13 49/49/13
f 47/47/13 49/49/13 50/50/13
f 47/47/13 50/50/13 51/51/13
f 52/52/14 53/53/14 54/54/14
f 55/55/15 56/56/15 57/57/15
f 55/55/15 57/57/15 58/58/15
f 59/59/16 60/60/16 61/61/16
f 62/62/17 63/63/17 64/64/17
f 62/62/17 64/64/17 65/65/17
f 66/66/18 67/67/18 68/68/18
f 66/66/18 68/68/18 69/69/18
f 70/70/19 71/71/19 72/72/19
f 70/70/19 72/72/19 73/73/19
f 74/74/20 75/75/20 76/76/20
f 74/74/20 76/76/20 77/77/20
f 74/74/20 77/77/20 78/78/20
f 79/79/21 80/80/21 81/81/21
f 79/79/21 81/81/21 82/82/21
f 83/83/22 84/84/22 85/85/22
f 83/83/22 85/85/22 86/86/22
f 87/87/23 88/88/23 89/89/23
f 87/87/23 89/89/23 90/90/23
f 91/91/24 92/92/24 93/93/24
f 91/91/24 93/93/24 94/94/24
f 95/95/25 96/96/25 97/97/25
f 95/95/25 97/97/25 98/98/25
f 99/99/26 100/100/26 101/101/26
f 99/99/26 101/101/26 102/102/26
f 103/103/27 104/104/27 105/105/27
f 103/103/27 105/105/27 106/106/27
f 103/103/27 106/106/27 107/107/27
f 103/103/27 107/107/27 108/108/27
f 103/103/27 108/108/27 109/109/27
f 103/103/27 109/109/27 110/110/27
f 103/103/27 110/110/27 111/111/27
f 103/103/27 111/111/27 112/112/27
f 103/103/27 112/112/27 113/113/27
f 103/103/27 113/113/27 114/114/27
f 103/103/27 114/114/27 115/115/27
f 103/103/27 115/115/27 116/116/27
f 103/103/27 116/116/27 117/117/27
f 118/118/28 119/119/28 120/120/28
f 118/118/28 120/120/28 121/121/28
f 118/118/28 121/121/28 122/122/28
f 118/118/28 122/122/28 123/123/28
f 118/118/28 123/123/28 124/124/28
f 118/118/28 124/124/28 125/125/28
f 118/118/28 125/125/28 126/126/28
f 118/118/28 126/126/28 127/127/28
f 118/118/28 127/127/28 128/128/28
f 118/118/28 128/128/28 129/129/28
f 118/118/28 129/129/28 130/130/28
f 118/118/28 130/130/28 131/131/28
f 118/118/28 131/131/28 132/132/28
f 133/133/29 134/134/29 135/135/29
f 133/133/29 135/135/29 136/136/29
f 133/133/29 136/136/29 137/137/29
f 138/138/30 139/139/30 140/140/30
f 138/138/30 140/140/30 141/141/30
f 138/138/30 141/141/30 142/142/30

