mtllib erj195.mtl

v 4.575436 0.149400 0.271628
v 4.507906 0.056011 0.590706
v 5.324850 0.134323 0.837534
v 5.400825 0.227079 0.524402
v 5.400825 0.227079 0.524402
v 5.324850 0.134323 0.837534
v 4.507906 0.056011 0.590706
v 4.575436 0.149400 0.271628
v 6.207949 0.218978 1.104350
v 7.079756 0.302550 1.367754
v 7.135496 0.374325 1.119029
v 6.280099 0.302534 0.822569
v 6.280099 0.302534 0.822569
v 7.135496 0.374325 1.119029
v 7.079756 0.302550 1.367754
v 6.207949 0.218978 1.104350
v 6.286957 0.307563 0.795781
v 6.280099 0.302534 0.822569
v 7.135496 0.374325 1.119029
v 7.148786 0.385201 1.059714
v 7.148786 0.385201 1.059714
v 7.135496 0.374325 1.119029
v 6.280099 0.302534 0.822569
v 6.286957 0.307563 0.795781
v 6.280099 0.302534 0.822569
v 5.563747 0.242412 0.574297
v 5.400825 0.227079 0.524402
v 5.324850 0.134323 0.837534
v 6.207949 0.218978 1.104350
v 6.207949 0.218978 1.104350
v 5.324850 0.134323 0.837534
v 5.400825 0.227079 0.524402
v 5.563747 0.242412 0.574297
v 6.280099 0.302534 0.822569
v 5.563747 0.242412 0.574297
v 6.280099 0.302534 0.822569
v 6.286957 0.307563 0.795781
v 6.286957 0.307563 0.795781
v 6.280099 0.302534 0.822569
v 5.563747 0.242412 0.574297

vt 0.754584 0.586027
vt 0.759303 0.608521
vt 0.702216 0.625921
vt 0.696907 0.603847
vt 0.696907 0.603847
vt 0.702216 0.625921
vt 0.759303 0.608521
vt 0.754584 0.586027
vt 0.640507 0.644731
vt 0.579587 0.663300
vt 0.575692 0.645766
vt 0.635465 0.624866
vt 0.635465 0.624866
vt 0.575692 0.645766
vt 0.579587 0.663300
vt 0.640507 0.644731
vt 0.634986 0.622978
vt 0.635465 0.624866
vt 0.575692 0.645766
vt 0.574763 0.641584
vt 0.574763 0.641584
vt 0.575692 0.645766
vt 0.635465 0.624866
vt 0.634986 0.622978
vt 0.635465 0.624866
vt 0.685523 0.607364
vt 0.696907 0.603847
vt 0.702216 0.625921
vt 0.640507 0.644731
vt 0.640507 0.644731
vt 0.702216 0.625921
vt 0.696907 0.603847
vt 0.685523 0.607364
vt 0.635465 0.624866
vt 0.685523 0.607364
vt 0.635465 0.624866
vt 0.634986 0.622978
vt 0.634986 0.622978
vt 0.635465 0.624866
vt 0.685523 0.607364

vn -0.165489 0.955396 0.244605
vn 0.165075 -0.955855 -0.243089
vn -0.164062 0.956963 0.239384
vn 0.163349 -0.957040 -0.239566
vn -0.134055 0.979621 0.149574
vn 0.134059 -0.979618 -0.149586
vn -0.163991 0.956429 0.241560
vn 0.165075 -0.955855 -0.243089
vn -0.134057 0.979621 0.149574
vn 0.134057 -0.979621 -0.149574

usemtl mat1
f 1/1/1 2/2/1 3/3/1
f 1/1/1 3/3/1 4/4/1
f 5/5/2 6/6/2 7/7/2
f 5/5/2 7/7/2 8/8/2
f 9/9/3 10/10/3 11/11/3
f 9/9/3 11/11/3 12/12/3
f 13/13/4 14/14/4 15/15/4
f 13/13/4 15/15/4 16/16/4
f 17/17/5 18/18/5 19/19/5
f 17/17/5 19/19/5 20/20/5
f 21/21/6 22/22/6 23/23/6
f 21/21/6 23/23/6 24/24/6
f 25/25/7 26/26/7 27/27/7
f 25/25/7 27/27/7 28/28/7
f 25/25/7 28/28/7 29/29/7
f 30/30/8 31/31/8 32/32/8
f 30/30/8 32/32/8 33/33/8
f 30/30/8 33/33/8 34/34/8
f 35/35/9 36/36/9 37/37/9
f 38/38/10 39/39/10 40/40/10

