mtllib erj195.mtl

v 9.208350 0.386649 2.136342
v 9.208350 0.409710 2.416794
v 8.583780 0.346232 2.239752
v 8.583780 0.321331 1.940218
v 8.583780 0.446726 1.822189
v 8.583780 0.417895 1.940218
v 9.208350 0.476077 2.136342
v 9.208350 0.506722 2.010892
v 9.208350 0.386649 2.136342
v 8.583780 0.321331 1.940218
v 8.583780 0.312090 1.822189
v 9.208350 0.377082 2.010892
v 8.583780 0.346232 2.239752
v 9.208350 0.409710 2.416794
v 9.208350 0.476077 2.136342
v 8.583780 0.417895 1.940218
v 9.208350 0.409710 2.416794
v 9.208350 0.386649 2.136342
v 9.208350 0.377082 2.010892
v 9.208350 0.506722 2.010892
v 9.208350 0.476077 2.136342
v 9.208350 0.476077 2.136342
v 9.208350 0.506722 2.010892
v 9.208350 0.377082 2.010892
v 9.208350 0.386649 2.136342
v 9.208350 0.409710 2.416794

vt 0.430844 0.717481
vt 0.430844 0.737252
vt 0.474488 0.724771
vt 0.474488 0.703655
vt 0.474488 0.695334
vt 0.474488 0.703655
vt 0.430844 0.717481
vt 0.430844 0.708637
vt 0.430844 0.717481
vt 0.474488 0.703655
vt 0.474488 0.695334
vt 0.430844 0.708637
vt 0.474488 0.724771
vt 0.430844 0.737252
vt 0.430844 0.717481
vt 0.474488 0.703655
vt 0.430844 0.737252
vt 0.430844 0.717481
vt 0.430844 0.708637
vt 0.430844 0.708637
vt 0.430844 0.717481
vt 0.430844 0.717481
vt 0.430844 0.708637
vt 0.430844 0.708637
vt 0.430844 0.717481
vt 0.430844 0.737252

vn 0.077825 -0.993614 0.081699
vn -0.162809 0.958475 0.234135
vn 0.079496 -0.993793 0.077817
vn -0.162009 0.960268 0.227241
vn 1.000000 0.000000 0.000000
vn -1.000000 0.000000 0.000000

usemtl mat1_ERJ-wing
f 1/1/1 2/2/1 3/3/1
f 1/1/1 3/3/1 4/4/1
f 5/5/2 6/6/2 7/7/2
f 5/5/2 7/7/2 8/8/2
f 9/9/3 10/10/3 11/11/3
f 9/9/3 11/11/3 12/12/3
f 13/13/4 14/14/4 15/15/4
f 13/13/4 15/15/4 16/16/4
f 17/17/5 18/18/5 19/19/5
f 17/17/5 19/19/5 20/20/5
f 17/17/5 20/20/5 21/21/5
f 22/22/6 23/23/6 24/24/6
f 22/22/6 24/24/6 25/25/6
f 22/22/6 25/25/6 26/26/6

