mtllib erj195.mtl

v -0.000519 -0.992726 -13.982370
v -0.000650 -0.993161 -13.963700
v -0.000751 -0.933809 -13.963600
v -0.000620 -0.933375 -13.982270
v -0.000650 -0.993161 -13.963700
v 0.295334 -0.946500 -13.963700
v 0.295235 -0.887149 -13.963600
v -0.000751 -0.933809 -13.963600
v 0.000359 -0.966001 -14.589300
v 0.002075 -0.984101 -14.352800
v 0.001976 -0.924749 -14.352700
v 0.000259 -0.906649 -14.589200
v 0.377373 -0.925101 -14.352800
v 0.368123 -0.908961 -14.589300
v 0.368021 -0.849610 -14.589200
v 0.377274 -0.865749 -14.352700
v 0.000359 -0.938651 -15.167400
v 0.000359 -0.966001 -14.589300
v 0.000259 -0.906649 -14.589200
v 0.000259 -0.879300 -15.167300
v 0.368123 -0.908961 -14.589300
v 0.347367 -0.886941 -15.167400
v 0.347268 -0.827590 -15.167300
v 0.368021 -0.849610 -14.589200
v 0.315680 -0.824151 -15.870300
v 0.002850 -0.865681 -15.870300
v 0.002750 -0.806330 -15.870200
v 0.315579 -0.764799 -15.870200
v 0.002850 -0.865681 -15.870300
v 0.000359 -0.938651 -15.167400
v 0.000259 -0.879300 -15.167300
v 0.002750 -0.806330 -15.870200
v 0.347367 -0.886941 -15.167400
v 0.315680 -0.824151 -15.870300
v 0.315579 -0.764799 -15.870200
v 0.347268 -0.827590 -15.167300
v 0.295334 -0.946500 -13.963700
v 0.383816 -0.932551 -13.963700
v 0.383717 -0.873199 -13.963600
v 0.295235 -0.887149 -13.963600
v 0.383816 -0.932551 -13.963700
v 0.377373 -0.925101 -14.352800
v 0.377274 -0.865749 -14.352700
v 0.383717 -0.873199 -13.963600
v 0.002075 -0.984101 -14.352800
v -0.000519 -0.992726 -13.982370
v -0.000620 -0.933375 -13.982270
v 0.001976 -0.924749 -14.352700
v 0.295235 -0.887149 -13.963600
v 0.295235 -0.886742 -13.982270
v -0.000620 -0.933375 -13.982270
v -0.000751 -0.933809 -13.963600
v 0.368021 -0.849610 -14.589200
v 0.000259 -0.906649 -14.589200
v 0.001976 -0.924749 -14.352700
v 0.377274 -0.865749 -14.352700
v 0.347268 -0.827590 -15.167300
v 0.000259 -0.879300 -15.167300
v 0.000259 -0.906649 -14.589200
v 0.368021 -0.849610 -14.589200
v 0.315579 -0.764799 -15.870200
v 0.002750 -0.806330 -15.870200
v 0.000259 -0.879300 -15.167300
v 0.347268 -0.827590 -15.167300
v 0.295235 -0.887149 -13.963600
v 0.383717 -0.873199 -13.963600
v 0.377274 -0.865749 -14.352700
v 0.001976 -0.924749 -14.352700
v -0.000620 -0.933375 -13.982270
v 0.295235 -0.886742 -13.982270

vt 0.799852 0.549686
vt 0.799415 0.549709
vt 0.799413 0.546588
vt 0.799850 0.546565
vt 0.799415 0.549709
vt 0.799415 0.547255
vt 0.799413 0.544134
vt 0.799413 0.546588
vt 0.814049 0.548281
vt 0.808517 0.549232
vt 0.808515 0.546111
vt 0.814047 0.545160
vt 0.808517 0.546130
vt 0.814049 0.545281
vt 0.814047 0.542160
vt 0.808515 0.543009
vt 0.827572 0.546842
vt 0.814049 0.548281
vt 0.814047 0.545160
vt 0.827570 0.543721
vt 0.814049 0.545281
vt 0.827572 0.544123
vt 0.827570 0.541002
vt 0.814047 0.542160
vt 0.844015 0.540821
vt 0.844015 0.543005
vt 0.844012 0.539884
vt 0.844012 0.537700
vt 0.844015 0.543005
vt 0.827572 0.546842
vt 0.827570 0.543721
vt 0.844012 0.539884
vt 0.827572 0.544123
vt 0.844015 0.540821
vt 0.844012 0.537700
vt 0.827570 0.541002
vt 0.799415 0.547255
vt 0.799415 0.546522
vt 0.799413 0.543401
vt 0.799413 0.544134
vt 0.799415 0.546522
vt 0.808517 0.546130
vt 0.808515 0.543009
vt 0.799413 0.543401
vt 0.808517 0.549232
vt 0.799852 0.549686
vt 0.799850 0.546565
vt 0.808515 0.546111
vt 0.799413 0.544134
vt 0.799850 0.544113
vt 0.799850 0.546565
vt 0.799413 0.546588
vt 0.814047 0.542160
vt 0.814047 0.545160
vt 0.808515 0.546111
vt 0.808515 0.543009
vt 0.827570 0.541002
vt 0.827570 0.543721
vt 0.814047 0.545160
vt 0.814047 0.542160
vt 0.844012 0.537700
vt 0.844012 0.539884
vt 0.827570 0.543721
vt 0.827570 0.541002
vt 0.799413 0.544134
vt 0.799413 0.543401
vt 0.808515 0.543009
vt 0.808515 0.546111
vt 0.799850 0.546565
vt 0.799850 0.544113

vn -0.999973 -0.001691 -0.007088
vn 0.000266 -0.001684 0.999999
vn -0.999973 -0.001683 0.007129
vn 0.999239 0.001783 -0.038961
vn -0.999999 -0.001671 -0.000079
vn 0.999357 0.001727 -0.035815
vn -0.000224 0.001685 -0.999999
vn -0.999992 -0.001665 -0.003717
vn 0.998991 0.001776 -0.044876
vn 0.000266 -0.001684 0.999999
vn 0.999862 0.001696 -0.016524
vn -0.999974 -0.001691 -0.007042
vn -0.155662 0.987577 0.021487
vn -0.152817 0.985288 0.076515
vn -0.147228 0.987997 0.046741
vn -0.130920 0.986141 0.101910
vn -0.155693 0.987572 0.021487

usemtl mat1
f 1/1/1 2/2/1 3/3/1
f 1/1/1 3/3/1 4/4/1
f 5/5/2 6/6/2 7/7/2
f 5/5/2 7/7/2 8/8/2
f 9/9/3 10/10/3 11/11/3
f 9/9/3 11/11/3 12/12/3
f 13/13/4 14/14/4 15/15/4
f 13/13/4 15/15/4 16/16/4
f 17/17/5 18/18/5 19/19/5
f 17/17/5 19/19/5 20/20/5
f 21/21/6 22/22/6 23/23/6
f 21/21/6 23/23/6 24/24/6
f 25/25/7 26/26/7 27/27/7
f 25/25/7 27/27/7 28/28/7
f 29/29/8 30/30/8 31/31/8
f 29/29/8 31/31/8 32/32/8
f 33/33/9 34/34/9 35/35/9
f 33/33/9 35/35/9 36/36/9
f 37/37/10 38/38/10 39/39/10
f 37/37/10 39/39/10 40/40/10
f 41/41/11 42/42/11 43/43/11
f 41/41/11 43/43/11 44/44/11
f 45/45/12 46/46/12 47/47/12
f 45/45/12 47/47/12 48/48/12
f 49/49/13 50/50/13 51/51/13
f 49/49/13 51/51/13 52/52/13
f 53/53/14 54/54/14 55/55/14
f 53/53/14 55/55/14 56/56/14
f 57/57/15 58/58/15 59/59/15
f 57/57/15 59/59/15 60/60/15
f 61/61/16 62/62/16 63/63/16
f 61/61/16 63/63/16 64/64/16
f 65/65/17 66/66/17 67/67/17
f 65/65/17 67/67/17 68/68/17
f 65/65/17 68/68/17 69/69/17
f 65/65/17 69/69/17 70/70/17

