mtllib erj195.mtl

v -9.208340 0.476076 2.136337
v -9.208340 0.506721 2.010887
v -9.208340 0.377081 2.010887
v -9.208340 0.386649 2.136337
v -9.208340 0.409709 2.416789
v -9.208340 0.409709 2.416789
v -9.208340 0.386649 2.136337
v -9.208340 0.377081 2.010887
v -9.208340 0.506721 2.010887
v -9.208340 0.476076 2.136337
v -8.583740 0.417894 1.940213
v -9.208340 0.476076 2.136337
v -9.208340 0.409709 2.416789
v -8.583740 0.346232 2.239747
v -9.208340 0.377081 2.010887
v -8.583740 0.312089 1.822184
v -8.583740 0.321331 1.940213
v -9.208340 0.386649 2.136337
v -9.208340 0.506721 2.010887
v -9.208340 0.476076 2.136337
v -8.583740 0.417894 1.940213
v -8.583740 0.446726 1.822184
v -8.583740 0.321331 1.940213
v -8.583740 0.346232 2.239747
v -9.208340 0.409709 2.416789
v -9.208340 0.386649 2.136337

vt 0.430844 0.717481
vt 0.430844 0.708637
vt 0.430844 0.708637
vt 0.430844 0.717481
vt 0.430844 0.737252
vt 0.430844 0.737252
vt 0.430844 0.717481
vt 0.430844 0.708637
vt 0.430844 0.708637
vt 0.430844 0.717481
vt 0.474488 0.703655
vt 0.430844 0.717481
vt 0.430844 0.737252
vt 0.474488 0.724771
vt 0.430844 0.708637
vt 0.474488 0.695334
vt 0.474488 0.703655
vt 0.430844 0.717481
vt 0.430844 0.708637
vt 0.430844 0.717481
vt 0.474488 0.703655
vt 0.474488 0.695334
vt 0.474488 0.703655
vt 0.474488 0.724771
vt 0.430844 0.737252
vt 0.430844 0.717481

vn -1.000000 0.000000 0.000000
vn 1.000000 0.000000 0.000000
vn 0.160835 0.960455 0.227285
vn -0.079896 -0.993761 0.077814
vn 0.162802 0.958476 0.234137
vn -0.077562 -0.993560 0.082597

usemtl mat1_ERJ-wing
f 1/1/1 2/2/1 3/3/1
f 1/1/1 3/3/1 4/4/1
f 1/1/1 4/4/1 5/5/1
f 6/6/2 7/7/2 8/8/2
f 6/6/2 8/8/2 9/9/2
f 6/6/2 9/9/2 10/10/2
f 11/11/3 12/12/3 13/13/3
f 11/11/3 13/13/3 14/14/3
f 15/15/4 16/16/4 17/17/4
f 15/15/4 17/17/4 18/18/4
f 19/19/5 20/20/5 21/21/5
f 19/19/5 21/21/5 22/22/5
f 23/23/6 24/24/6 25/25/6
f 23/23/6 25/25/6 26/26/6

