mtllib erj195.mtl

v -6.286950 0.307563 0.795786
v -6.280150 0.302535 0.822574
v -5.563750 0.242412 0.574303
v -5.563750 0.242412 0.574303
v -6.280150 0.302535 0.822574
v -6.286950 0.307563 0.795786
v -6.207950 0.218979 1.104356
v -5.324850 0.134324 0.837540
v -5.400850 0.227079 0.524409
v -5.563750 0.242412 0.574303
v -6.280150 0.302535 0.822574
v -6.280150 0.302535 0.822574
v -5.563750 0.242412 0.574303
v -5.400850 0.227079 0.524409
v -5.324850 0.134324 0.837540
v -6.207950 0.218979 1.104356
v -7.148750 0.385201 1.059721
v -7.135550 0.374325 1.119035
v -6.280150 0.302535 0.822574
v -6.286950 0.307563 0.795786
v -6.286950 0.307563 0.795786
v -6.280150 0.302535 0.822574
v -7.135550 0.374325 1.119035
v -7.148750 0.385201 1.059721
v -6.280150 0.302535 0.822574
v -7.135550 0.374325 1.119035
v -7.079750 0.302551 1.367760
v -6.207950 0.218979 1.104356
v -6.207950 0.218979 1.104356
v -7.079750 0.302551 1.367760
v -7.135550 0.374325 1.119035
v -6.280150 0.302535 0.822574
v -5.400850 0.227079 0.524409
v -5.324850 0.134324 0.837540
v -4.507950 0.056011 0.590712
v -4.575450 0.149400 0.271634
v -4.575450 0.149400 0.271634
v -4.507950 0.056011 0.590712
v -5.324850 0.134324 0.837540
v -5.400850 0.227079 0.524409

vt 0.634986 0.622978
vt 0.635465 0.624866
vt 0.685523 0.607364
vt 0.685523 0.607364
vt 0.635465 0.624866
vt 0.634986 0.622978
vt 0.640507 0.644731
vt 0.702216 0.625921
vt 0.696907 0.603847
vt 0.685523 0.607364
vt 0.635465 0.624866
vt 0.635465 0.624866
vt 0.685523 0.607364
vt 0.696907 0.603847
vt 0.702216 0.625921
vt 0.640507 0.644731
vt 0.574763 0.641584
vt 0.575692 0.645766
vt 0.635465 0.624866
vt 0.634986 0.622978
vt 0.634986 0.622978
vt 0.635465 0.624866
vt 0.575692 0.645766
vt 0.574763 0.641584
vt 0.635465 0.624866
vt 0.575692 0.645766
vt 0.579587 0.663300
vt 0.640507 0.644731
vt 0.640507 0.644731
vt 0.579587 0.663300
vt 0.575692 0.645766
vt 0.635465 0.624866
vt 0.696907 0.603847
vt 0.702216 0.625921
vt 0.759303 0.608521
vt 0.754584 0.586027
vt 0.754584 0.586027
vt 0.759303 0.608521
vt 0.702216 0.625921
vt 0.696907 0.603847

vn 0.134135 0.979570 0.149836
vn -0.134135 -0.979570 -0.149836
vn 0.165072 0.955858 0.243078
vn -0.164212 -0.956208 -0.242283
vn 0.134120 0.979582 0.149772
vn -0.134141 -0.979569 -0.149835
vn 0.163337 0.957051 0.239531
vn -0.164053 -0.956974 -0.239348
vn 0.165080 0.955857 0.243076
vn -0.165501 -0.955391 -0.244616

usemtl mat1_ERJ-wing
f 1/1/1 2/2/1 3/3/1
f 4/4/2 5/5/2 6/6/2
f 7/7/3 8/8/3 9/9/3
f 7/7/3 9/9/3 10/10/3
f 7/7/3 10/10/3 11/11/3
f 12/12/4 13/13/4 14/14/4
f 12/12/4 14/14/4 15/15/4
f 12/12/4 15/15/4 16/16/4
f 17/17/5 18/18/5 19/19/5
f 17/17/5 19/19/5 20/20/5
f 21/21/6 22/22/6 23/23/6
f 21/21/6 23/23/6 24/24/6
f 25/25/7 26/26/7 27/27/7
f 25/25/7 27/27/7 28/28/7
f 29/29/8 30/30/8 31/31/8
f 29/29/8 31/31/8 32/32/8
f 33/33/9 34/34/9 35/35/9
f 33/33/9 35/35/9 36/36/9
f 37/37/10 38/38/10 39/39/10
f 37/37/10 39/39/10 40/40/10

