mtllib erj195.mtl

v -1.818275 -0.253300 0.459586
v -1.818275 -0.123197 -0.017872
v -2.982405 0.019976 -0.017872
v -2.982405 -0.111463 0.460493
v -2.982405 -0.111463 0.460493
v -2.982405 0.019976 -0.017872
v -1.818275 -0.123197 -0.017872
v -1.818275 -0.253300 0.459586

vt 0.947250 0.599277
vt 0.947250 0.565618
vt 0.865902 0.565618
vt 0.865902 0.599341
vt 0.865902 0.599341
vt 0.865902 0.565618
vt 0.947250 0.565618
vt 0.947250 0.599277

vn 0.117834 0.958100 0.261074
vn -0.117767 -0.957553 -0.263104

usemtl mat1
f 1/1/1 2/2/1 3/3/1
f 1/1/1 3/3/1 4/4/1
f 5/5/2 6/6/2 7/7/2
f 5/5/2 7/7/2 8/8/2

