# espelho X do erj195_reverser.obj (motor direito)
mtllib erj195.mtl

v 3.787673 -0.295266 -3.522158
v 4.036525 -0.255852 -3.522158
v 4.036525 -0.204567 -4.042703
v 3.771827 -0.246491 -4.042703
v 3.771827 -0.246491 -4.042703
v 4.036525 -0.204567 -4.042703
v 4.036525 -0.255852 -3.522158
v 3.787673 -0.295266 -3.522158
v 3.821132 -0.398235 -2.995630
v 4.036525 -0.364120 -2.995630
v 4.036525 -0.255852 -3.522158
v 3.787673 -0.295266 -3.522158
v 3.787673 -0.295266 -3.522158
v 4.036525 -0.255852 -3.522158
v 4.036525 -0.364120 -2.995630
v 3.821132 -0.398235 -2.995630
v 3.821132 -0.398235 -3.432410
v 4.036525 -0.364120 -3.432410
v 4.036525 -0.364120 -2.995630
v 3.821132 -0.398235 -2.995630
v 3.821132 -0.398235 -2.995630
v 4.036525 -0.364120 -2.995630
v 4.036525 -0.364120 -3.432410
v 3.821132 -0.398235 -3.432410
v 3.953197 -0.804692 -3.731573
v 4.036525 -0.791494 -3.731573
v 4.036525 -0.364120 -3.432410
v 3.821132 -0.398235 -3.432410
v 3.821132 -0.398235 -3.432410
v 4.036525 -0.364120 -3.432410
v 4.036525 -0.791494 -3.731573
v 3.953197 -0.804692 -3.731573
v 3.953197 -0.804692 -4.054668
v 4.036525 -0.791494 -4.054668
v 4.036525 -0.791494 -3.731573
v 3.953197 -0.804692 -3.731573
v 3.953197 -0.804692 -3.731573
v 4.036525 -0.791494 -3.731573
v 4.036525 -0.791494 -4.054668
v 3.953197 -0.804692 -4.054668
v 3.563184 -0.409650 -3.522158
v 3.787673 -0.295266 -3.522158
v 3.771827 -0.246491 -4.042703
v 3.533038 -0.368160 -4.042703
v 3.533038 -0.368160 -4.042703
v 3.771827 -0.246491 -4.042703
v 3.787673 -0.295266 -3.522158
v 3.563184 -0.409650 -3.522158
v 3.626823 -0.497240 -2.995630
v 3.821132 -0.398235 -2.995630
v 3.787673 -0.295266 -3.522158
v 3.563184 -0.409650 -3.522158
v 3.563184 -0.409650 -3.522158
v 3.787673 -0.295266 -3.522158
v 3.821132 -0.398235 -2.995630
v 3.626823 -0.497240 -2.995630
v 3.626823 -0.497240 -3.432410
v 3.821132 -0.398235 -3.432410
v 3.821132 -0.398235 -2.995630
v 3.626823 -0.497240 -2.995630
v 3.626823 -0.497240 -2.995630
v 3.821132 -0.398235 -2.995630
v 3.821132 -0.398235 -3.432410
v 3.626823 -0.497240 -3.432410
v 3.878024 -0.842994 -3.731573
v 3.953197 -0.804692 -3.731573
v 3.821132 -0.398235 -3.432410
v 3.626823 -0.497240 -3.432410
v 3.626823 -0.497240 -3.432410
v 3.821132 -0.398235 -3.432410
v 3.953197 -0.804692 -3.731573
v 3.878024 -0.842994 -3.731573
v 3.878024 -0.842994 -4.054668
v 3.953197 -0.804692 -4.054668
v 3.953197 -0.804692 -3.731573
v 3.878024 -0.842994 -3.731573
v 3.878024 -0.842994 -3.731573
v 3.953197 -0.804692 -3.731573
v 3.953197 -0.804692 -4.054668
v 3.878024 -0.842994 -4.054668
v 3.385024 -0.587807 -3.522158
v 3.563184 -0.409650 -3.522158
v 3.533038 -0.368160 -4.042703
v 3.343536 -0.557663 -4.042703
v 3.343536 -0.557663 -4.042703
v 3.533038 -0.368160 -4.042703
v 3.563184 -0.409650 -3.522158
v 3.385024 -0.587807 -3.522158
v 3.472615 -0.651446 -2.995630
v 3.626823 -0.497240 -2.995630
v 3.563184 -0.409650 -3.522158
v 3.385024 -0.587807 -3.522158
v 3.385024 -0.587807 -3.522158
v 3.563184 -0.409650 -3.522158
v 3.626823 -0.497240 -2.995630
v 3.472615 -0.651446 -2.995630
v 3.472615 -0.651446 -3.432410
v 3.626823 -0.497240 -3.432410
v 3.626823 -0.497240 -2.995630
v 3.472615 -0.651446 -2.995630
v 3.472615 -0.651446 -2.995630
v 3.626823 -0.497240 -2.995630
v 3.626823 -0.497240 -3.432410
v 3.472615 -0.651446 -3.432410
v 3.81837 -0.902650 -3.731573
v 3.878024 -0.842994 -3.731573
v 3.626823 -0.497240 -3.432410
v 3.472615 -0.651446 -3.432410
v 3.472615 -0.651446 -3.432410
v 3.626823 -0.497240 -3.432410
v 3.878024 -0.842994 -3.731573
v 3.81837 -0.902650 -3.731573
v 3.81837 -0.902650 -4.054668
v 3.878024 -0.842994 -4.054668
v 3.878024 -0.842994 -3.731573
v 3.81837 -0.902650 -3.731573
v 3.81837 -0.902650 -3.731573
v 3.878024 -0.842994 -3.731573
v 3.878024 -0.842994 -4.054668
v 3.81837 -0.902650 -4.054668
v 3.270641 -0.812299 -3.522158
v 3.385024 -0.587807 -3.522158
v 3.343536 -0.557663 -4.042703
v 3.21449 -0.796451 -4.042703
v 3.21449 -0.796451 -4.042703
v 3.343536 -0.557663 -4.042703
v 3.385024 -0.587807 -3.522158
v 3.270641 -0.812299 -3.522158
v 3.373611 -0.845756 -2.995630
v 3.472615 -0.651446 -2.995630
v 3.385024 -0.587807 -3.522158
v 3.270641 -0.812299 -3.522158
v 3.270641 -0.812299 -3.522158
v 3.385024 -0.587807 -3.522158
v 3.472615 -0.651446 -2.995630
v 3.373611 -0.845756 -2.995630
v 3.373611 -0.845756 -3.432410
v 3.472615 -0.651446 -3.432410
v 3.472615 -0.651446 -2.995630
v 3.373611 -0.845756 -2.995630
v 3.373611 -0.845756 -2.995630
v 3.472615 -0.651446 -2.995630
v 3.472615 -0.651446 -3.432410
v 3.373611 -0.845756 -3.432410
v 3.780067 -0.977822 -3.731573
v 3.81837 -0.902650 -3.731573
v 3.472615 -0.651446 -3.432410
v 3.373611 -0.845756 -3.432410
v 3.373611 -0.845756 -3.432410
v 3.472615 -0.651446 -3.432410
v 3.81837 -0.902650 -3.731573
v 3.780067 -0.977822 -3.731573
v 3.780067 -0.977822 -4.054668
v 3.81837 -0.902650 -4.054668
v 3.81837 -0.902650 -3.731573
v 3.780067 -0.977822 -3.731573
v 3.780067 -0.977822 -3.731573
v 3.81837 -0.902650 -3.731573
v 3.81837 -0.902650 -4.054668
v 3.780067 -0.977822 -4.054668
v 3.231227 -1.061150 -3.522158
v 3.270641 -0.812299 -3.522158
v 3.21449 -0.796451 -4.042703
v 3.179942 -1.061150 -4.042703
v 3.179942 -1.061150 -4.042703
v 3.21449 -0.796451 -4.042703
v 3.270641 -0.812299 -3.522158
v 3.231227 -1.061150 -3.522158
v 3.339494 -1.061150 -2.995630
v 3.373611 -0.845756 -2.995630
v 3.270641 -0.812299 -3.522158
v 3.231227 -1.061150 -3.522158
v 3.231227 -1.061150 -3.522158
v 3.270641 -0.812299 -3.522158
v 3.373611 -0.845756 -2.995630
v 3.339494 -1.061150 -2.995630
v 3.339494 -1.061150 -3.432410
v 3.373611 -0.845756 -3.432410
v 3.373611 -0.845756 -2.995630
v 3.339494 -1.061150 -2.995630
v 3.339494 -1.061150 -2.995630
v 3.373611 -0.845756 -2.995630
v 3.373611 -0.845756 -3.432410
v 3.339494 -1.061150 -3.432410
v 3.76687 -1.061150 -3.731573
v 3.780067 -0.977822 -3.731573
v 3.373611 -0.845756 -3.432410
v 3.339494 -1.061150 -3.432410
v 3.339494 -1.061150 -3.432410
v 3.373611 -0.845756 -3.432410
v 3.780067 -0.977822 -3.731573
v 3.76687 -1.061150 -3.731573
v 3.76687 -1.061150 -4.054668
v 3.780067 -0.977822 -4.054668
v 3.780067 -0.977822 -3.731573
v 3.76687 -1.061150 -3.731573
v 3.76687 -1.061150 -3.731573
v 3.780067 -0.977822 -3.731573
v 3.780067 -0.977822 -4.054668
v 3.76687 -1.061150 -4.054668
v 3.270641 -1.307320 -3.522158
v 3.231227 -1.061150 -3.522158
v 3.179942 -1.061150 -4.042703
v 3.221866 -1.322698 -4.042703
v 3.221866 -1.322698 -4.042703
v 3.179942 -1.061150 -4.042703
v 3.231227 -1.061150 -3.522158
v 3.270641 -1.307320 -3.522158
v 3.373611 -1.276544 -2.995630
v 3.339494 -1.061150 -2.995630
v 3.231227 -1.061150 -3.522158
v 3.270641 -1.307320 -3.522158
v 3.270641 -1.307320 -3.522158
v 3.231227 -1.061150 -3.522158
v 3.339494 -1.061150 -2.995630
v 3.373611 -1.276544 -2.995630
v 3.373611 -1.274856 -3.432410
v 3.339494 -1.061150 -3.432410
v 3.339494 -1.061150 -2.995630
v 3.373611 -1.276544 -2.995630
v 3.373611 -1.276544 -2.995630
v 3.339494 -1.061150 -2.995630
v 3.339494 -1.061150 -3.432410
v 3.373611 -1.274856 -3.432410
v 3.780067 -1.144478 -3.731573
v 3.76687 -1.061150 -3.731573
v 3.339494 -1.061150 -3.432410
v 3.373611 -1.274856 -3.432410
v 3.373611 -1.274856 -3.432410
v 3.339494 -1.061150 -3.432410
v 3.76687 -1.061150 -3.731573
v 3.780067 -1.144478 -3.731573
v 3.780067 -1.144478 -4.054668
v 3.76687 -1.061150 -4.054668
v 3.76687 -1.061150 -3.731573
v 3.780067 -1.144478 -3.731573
v 3.780067 -1.144478 -3.731573
v 3.76687 -1.061150 -3.731573
v 3.76687 -1.061150 -4.054668
v 3.780067 -1.144478 -4.054668
v 3.385024 -1.518243 -3.522158
v 3.270641 -1.307320 -3.522158
v 3.221866 -1.322698 -4.042703
v 3.343536 -1.545609 -4.042703
v 3.343536 -1.545609 -4.042703
v 3.221866 -1.322698 -4.042703
v 3.270641 -1.307320 -3.522158
v 3.385024 -1.518243 -3.522158
v 3.472615 -1.470854 -2.995630
v 3.373611 -1.276544 -2.995630
v 3.270641 -1.307320 -3.522158
v 3.385024 -1.518243 -3.522158
v 3.385024 -1.518243 -3.522158
v 3.270641 -1.307320 -3.522158
v 3.373611 -1.276544 -2.995630
v 3.472615 -1.470854 -2.995630
v 3.472615 -1.460471 -3.432410
v 3.373611 -1.274856 -3.432410
v 3.373611 -1.276544 -2.995630
v 3.472615 -1.470854 -2.995630
v 3.472615 -1.470854 -2.995630
v 3.373611 -1.276544 -2.995630
v 3.373611 -1.274856 -3.432410
v 3.472615 -1.460471 -3.432410
v 3.81837 -1.219650 -3.731573
v 3.780067 -1.144478 -3.731573
v 3.373611 -1.274856 -3.432410
v 3.472615 -1.460471 -3.432410
v 3.472615 -1.460471 -3.432410
v 3.373611 -1.274856 -3.432410
v 3.780067 -1.144478 -3.731573
v 3.81837 -1.219650 -3.731573
v 3.81837 -1.219650 -4.054668
v 3.780067 -1.144478 -4.054668
v 3.780067 -1.144478 -3.731573
v 3.81837 -1.219650 -3.731573
v 3.81837 -1.219650 -3.731573
v 3.780067 -1.144478 -3.731573
v 3.780067 -1.144478 -4.054668
v 3.81837 -1.219650 -4.054668
v 3.563184 -1.679980 -3.522158
v 3.385024 -1.518243 -3.522158
v 3.343536 -1.545609 -4.042703
v 3.533038 -1.717646 -4.042703
v 3.533038 -1.717646 -4.042703
v 3.343536 -1.545609 -4.042703
v 3.385024 -1.518243 -3.522158
v 3.563184 -1.679980 -3.522158
v 3.626823 -1.625059 -2.995630
v 3.472615 -1.470854 -2.995630
v 3.385024 -1.518243 -3.522158
v 3.563184 -1.679980 -3.522158
v 3.563184 -1.679980 -3.522158
v 3.385024 -1.518243 -3.522158
v 3.472615 -1.470854 -2.995630
v 3.626823 -1.625059 -2.995630
v 3.626823 -1.600463 -3.432410
v 3.472615 -1.460471 -3.432410
v 3.472615 -1.470854 -2.995630
v 3.626823 -1.625059 -2.995630
v 3.626823 -1.625059 -2.995630
v 3.472615 -1.470854 -2.995630
v 3.472615 -1.460471 -3.432410
v 3.626823 -1.600463 -3.432410
v 3.878024 -1.277536 -3.731573
v 3.81837 -1.219650 -3.731573
v 3.472615 -1.460471 -3.432410
v 3.626823 -1.600463 -3.432410
v 3.626823 -1.600463 -3.432410
v 3.472615 -1.460471 -3.432410
v 3.81837 -1.219650 -3.731573
v 3.878024 -1.277536 -3.731573
v 3.878024 -1.277536 -4.054668
v 3.81837 -1.219650 -4.054668
v 3.81837 -1.219650 -3.731573
v 3.878024 -1.277536 -3.731573
v 3.878024 -1.277536 -3.731573
v 3.81837 -1.219650 -3.731573
v 3.81837 -1.219650 -4.054668
v 3.878024 -1.277536 -4.054668
v 3.787673 -1.783821 -3.522158
v 3.563184 -1.679980 -3.522158
v 3.533038 -1.717646 -4.042703
v 3.771827 -1.828101 -4.042703
v 3.771827 -1.828101 -4.042703
v 3.533038 -1.717646 -4.042703
v 3.563184 -1.679980 -3.522158
v 3.787673 -1.783821 -3.522158
v 3.821132 -1.724065 -2.995630
v 3.626823 -1.625059 -2.995630
v 3.563184 -1.679980 -3.522158
v 3.787673 -1.783821 -3.522158
v 3.787673 -1.783821 -3.522158
v 3.563184 -1.679980 -3.522158
v 3.626823 -1.625059 -2.995630
v 3.821132 -1.724065 -2.995630
v 3.821132 -1.690343 -3.432410
v 3.626823 -1.600463 -3.432410
v 3.626823 -1.625059 -2.995630
v 3.821132 -1.724065 -2.995630
v 3.821132 -1.724065 -2.995630
v 3.626823 -1.625059 -2.995630
v 3.626823 -1.600463 -3.432410
v 3.821132 -1.690343 -3.432410
v 3.953197 -1.314702 -3.731573
v 3.878024 -1.277536 -3.731573
v 3.626823 -1.600463 -3.432410
v 3.821132 -1.690343 -3.432410
v 3.821132 -1.690343 -3.432410
v 3.626823 -1.600463 -3.432410
v 3.878024 -1.277536 -3.731573
v 3.953197 -1.314702 -3.731573
v 3.953197 -1.314702 -4.054668
v 3.878024 -1.277536 -4.054668
v 3.878024 -1.277536 -3.731573
v 3.953197 -1.314702 -3.731573
v 3.953197 -1.314702 -3.731573
v 3.878024 -1.277536 -3.731573
v 3.878024 -1.277536 -4.054668
v 3.953197 -1.314702 -4.054668
v 4.036525 -1.819603 -3.522158
v 3.787673 -1.783821 -3.522158
v 3.771827 -1.828101 -4.042703
v 4.036525 -1.866161 -4.042703
v 4.036525 -1.866161 -4.042703
v 3.771827 -1.828101 -4.042703
v 3.787673 -1.783821 -3.522158
v 4.036525 -1.819603 -3.522158
v 4.036525 -1.758180 -2.995630
v 3.821132 -1.724065 -2.995630
v 3.787673 -1.783821 -3.522158
v 4.036525 -1.819603 -3.522158
v 4.036525 -1.819603 -3.522158
v 3.787673 -1.783821 -3.522158
v 3.821132 -1.724065 -2.995630
v 4.036525 -1.758180 -2.995630
v 4.036525 -1.721314 -3.432410
v 3.821132 -1.690343 -3.432410
v 3.821132 -1.724065 -2.995630
v 4.036525 -1.758180 -2.995630
v 4.036525 -1.758180 -2.995630
v 3.821132 -1.724065 -2.995630
v 3.821132 -1.690343 -3.432410
v 4.036525 -1.721314 -3.432410
v 4.036525 -1.327508 -3.731573
v 3.953197 -1.314702 -3.731573
v 3.821132 -1.690343 -3.432410
v 4.036525 -1.721314 -3.432410
v 4.036525 -1.721314 -3.432410
v 3.821132 -1.690343 -3.432410
v 3.953197 -1.314702 -3.731573
v 4.036525 -1.327508 -3.731573
v 4.036525 -1.327508 -4.054668
v 3.953197 -1.314702 -4.054668
v 3.953197 -1.314702 -3.731573
v 4.036525 -1.327508 -3.731573
v 4.036525 -1.327508 -3.731573
v 3.953197 -1.314702 -3.731573
v 3.953197 -1.314702 -4.054668
v 4.036525 -1.327508 -4.054668
v 4.285377 -1.783821 -3.522158
v 4.036525 -1.819603 -3.522158
v 4.036525 -1.866161 -4.042703
v 4.301225 -1.828101 -4.042703
v 4.301225 -1.828101 -4.042703
v 4.036525 -1.866161 -4.042703
v 4.036525 -1.819603 -3.522158
v 4.285377 -1.783821 -3.522158
v 4.25192 -1.724065 -2.995630
v 4.036525 -1.758180 -2.995630
v 4.036525 -1.819603 -3.522158
v 4.285377 -1.783821 -3.522158
v 4.285377 -1.783821 -3.522158
v 4.036525 -1.819603 -3.522158
v 4.036525 -1.758180 -2.995630
v 4.25192 -1.724065 -2.995630
v 4.25192 -1.690343 -3.432410
v 4.036525 -1.721314 -3.432410
v 4.036525 -1.758180 -2.995630
v 4.25192 -1.724065 -2.995630
v 4.25192 -1.724065 -2.995630
v 4.036525 -1.758180 -2.995630
v 4.036525 -1.721314 -3.432410
v 4.25192 -1.690343 -3.432410
v 4.119853 -1.314702 -3.731573
v 4.036525 -1.327508 -3.731573
v 4.036525 -1.721314 -3.432410
v 4.25192 -1.690343 -3.432410
v 4.25192 -1.690343 -3.432410
v 4.036525 -1.721314 -3.432410
v 4.036525 -1.327508 -3.731573
v 4.119853 -1.314702 -3.731573
v 4.119853 -1.314702 -4.054668
v 4.036525 -1.327508 -4.054668
v 4.036525 -1.327508 -3.731573
v 4.119853 -1.314702 -3.731573
v 4.119853 -1.314702 -3.731573
v 4.036525 -1.327508 -3.731573
v 4.036525 -1.327508 -4.054668
v 4.119853 -1.314702 -4.054668
v 4.509868 -1.679980 -3.522158
v 4.285377 -1.783821 -3.522158
v 4.301225 -1.828101 -4.042703
v 4.540013 -1.717646 -4.042703
v 4.540013 -1.717646 -4.042703
v 4.301225 -1.828101 -4.042703
v 4.285377 -1.783821 -3.522158
v 4.509868 -1.679980 -3.522158
v 4.446229 -1.625060 -2.995630
v 4.25192 -1.724065 -2.995630
v 4.285377 -1.783821 -3.522158
v 4.509868 -1.679980 -3.522158
v 4.509868 -1.679980 -3.522158
v 4.285377 -1.783821 -3.522158
v 4.25192 -1.724065 -2.995630
v 4.446229 -1.625060 -2.995630
v 4.446229 -1.600463 -3.432410
v 4.25192 -1.690343 -3.432410
v 4.25192 -1.724065 -2.995630
v 4.446229 -1.625060 -2.995630
v 4.446229 -1.625060 -2.995630
v 4.25192 -1.724065 -2.995630
v 4.25192 -1.690343 -3.432410
v 4.446229 -1.600463 -3.432410
v 4.195026 -1.277536 -3.731573
v 4.119853 -1.314702 -3.731573
v 4.25192 -1.690343 -3.432410
v 4.446229 -1.600463 -3.432410
v 4.446229 -1.600463 -3.432410
v 4.25192 -1.690343 -3.432410
v 4.119853 -1.314702 -3.731573
v 4.195026 -1.277536 -3.731573
v 4.195026 -1.277536 -4.054668
v 4.119853 -1.314702 -4.054668
v 4.119853 -1.314702 -3.731573
v 4.195026 -1.277536 -3.731573
v 4.195026 -1.277536 -3.731573
v 4.119853 -1.314702 -3.731573
v 4.119853 -1.314702 -4.054668
v 4.195026 -1.277536 -4.054668
v 4.688026 -1.518243 -3.522158
v 4.509868 -1.679980 -3.522158
v 4.540013 -1.717646 -4.042703
v 4.729515 -1.545609 -4.042703
v 4.729515 -1.545609 -4.042703
v 4.540013 -1.717646 -4.042703
v 4.509868 -1.679980 -3.522158
v 4.688026 -1.518243 -3.522158
v 4.600435 -1.470854 -2.995630
v 4.446229 -1.625060 -2.995630
v 4.509868 -1.679980 -3.522158
v 4.688026 -1.518243 -3.522158
v 4.688026 -1.518243 -3.522158
v 4.509868 -1.679980 -3.522158
v 4.446229 -1.625060 -2.995630
v 4.600435 -1.470854 -2.995630
v 4.600435 -1.460471 -3.432410
v 4.446229 -1.600463 -3.432410
v 4.446229 -1.625060 -2.995630
v 4.600435 -1.470854 -2.995630
v 4.600435 -1.470854 -2.995630
v 4.446229 -1.625060 -2.995630
v 4.446229 -1.600463 -3.432410
v 4.600435 -1.460471 -3.432410
v 4.254682 -1.219650 -3.731573
v 4.195026 -1.277536 -3.731573
v 4.446229 -1.600463 -3.432410
v 4.600435 -1.460471 -3.432410
v 4.600435 -1.460471 -3.432410
v 4.446229 -1.600463 -3.432410
v 4.195026 -1.277536 -3.731573
v 4.254682 -1.219650 -3.731573
v 4.254682 -1.219650 -4.054668
v 4.195026 -1.277536 -4.054668
v 4.195026 -1.277536 -3.731573
v 4.254682 -1.219650 -3.731573
v 4.254682 -1.219650 -3.731573
v 4.195026 -1.277536 -3.731573
v 4.195026 -1.277536 -4.054668
v 4.254682 -1.219650 -4.054668
v 4.802409 -1.307320 -3.522158
v 4.688026 -1.518243 -3.522158
v 4.729515 -1.545609 -4.042703
v 4.851184 -1.322698 -4.042703
v 4.851184 -1.322698 -4.042703
v 4.729515 -1.545609 -4.042703
v 4.688026 -1.518243 -3.522158
v 4.802409 -1.307320 -3.522158
v 4.69944 -1.276544 -2.995630
v 4.600435 -1.470854 -2.995630
v 4.688026 -1.518243 -3.522158
v 4.802409 -1.307320 -3.522158
v 4.802409 -1.307320 -3.522158
v 4.688026 -1.518243 -3.522158
v 4.600435 -1.470854 -2.995630
v 4.69944 -1.276544 -2.995630
v 4.69944 -1.274856 -3.432410
v 4.600435 -1.460471 -3.432410
v 4.600435 -1.470854 -2.995630
v 4.69944 -1.276544 -2.995630
v 4.69944 -1.276544 -2.995630
v 4.600435 -1.470854 -2.995630
v 4.600435 -1.460471 -3.432410
v 4.69944 -1.274856 -3.432410
v 4.292983 -1.144478 -3.731573
v 4.254682 -1.219650 -3.731573
v 4.600435 -1.460471 -3.432410
v 4.69944 -1.274856 -3.432410
v 4.69944 -1.274856 -3.432410
v 4.600435 -1.460471 -3.432410
v 4.254682 -1.219650 -3.731573
v 4.292983 -1.144478 -3.731573
v 4.292983 -1.144478 -4.054668
v 4.254682 -1.219650 -4.054668
v 4.254682 -1.219650 -3.731573
v 4.292983 -1.144478 -3.731573
v 4.292983 -1.144478 -3.731573
v 4.254682 -1.219650 -3.731573
v 4.254682 -1.219650 -4.054668
v 4.292983 -1.144478 -4.054668
v 4.841823 -1.061150 -3.522158
v 4.802409 -1.307320 -3.522158
v 4.851184 -1.322698 -4.042703
v 4.893109 -1.061150 -4.042703
v 4.893109 -1.061150 -4.042703
v 4.851184 -1.322698 -4.042703
v 4.802409 -1.307320 -3.522158
v 4.841823 -1.061150 -3.522158
v 4.733556 -1.061150 -2.995630
v 4.69944 -1.276544 -2.995630
v 4.802409 -1.307320 -3.522158
v 4.841823 -1.061150 -3.522158
v 4.841823 -1.061150 -3.522158
v 4.802409 -1.307320 -3.522158
v 4.69944 -1.276544 -2.995630
v 4.733556 -1.061150 -2.995630
v 4.733556 -1.061150 -3.432410
v 4.69944 -1.274856 -3.432410
v 4.69944 -1.276544 -2.995630
v 4.733556 -1.061150 -2.995630
v 4.733556 -1.061150 -2.995630
v 4.69944 -1.276544 -2.995630
v 4.69944 -1.274856 -3.432410
v 4.733556 -1.061150 -3.432410
v 4.306182 -1.061150 -3.731573
v 4.292983 -1.144478 -3.731573
v 4.69944 -1.274856 -3.432410
v 4.733556 -1.061150 -3.432410
v 4.733556 -1.061150 -3.432410
v 4.69944 -1.274856 -3.432410
v 4.292983 -1.144478 -3.731573
v 4.306182 -1.061150 -3.731573
v 4.306182 -1.061150 -4.054668
v 4.292983 -1.144478 -4.054668
v 4.292983 -1.144478 -3.731573
v 4.306182 -1.061150 -3.731573
v 4.306182 -1.061150 -3.731573
v 4.292983 -1.144478 -3.731573
v 4.292983 -1.144478 -4.054668
v 4.306182 -1.061150 -4.054668
v 4.802409 -0.812299 -3.522158
v 4.841823 -1.061150 -3.522158
v 4.893109 -1.061150 -4.042703
v 4.851184 -0.796451 -4.042703
v 4.851184 -0.796451 -4.042703
v 4.893109 -1.061150 -4.042703
v 4.841823 -1.061150 -3.522158
v 4.802409 -0.812299 -3.522158
v 4.69944 -0.845756 -2.995630
v 4.733556 -1.061150 -2.995630
v 4.841823 -1.061150 -3.522158
v 4.802409 -0.812299 -3.522158
v 4.802409 -0.812299 -3.522158
v 4.841823 -1.061150 -3.522158
v 4.733556 -1.061150 -2.995630
v 4.69944 -0.845756 -2.995630
v 4.69944 -0.845756 -3.432410
v 4.733556 -1.061150 -3.432410
v 4.733556 -1.061150 -2.995630
v 4.69944 -0.845756 -2.995630
v 4.69944 -0.845756 -2.995630
v 4.733556 -1.061150 -2.995630
v 4.733556 -1.061150 -3.432410
v 4.69944 -0.845756 -3.432410
v 4.292983 -0.977822 -3.731573
v 4.306182 -1.061150 -3.731573
v 4.733556 -1.061150 -3.432410
v 4.69944 -0.845756 -3.432410
v 4.69944 -0.845756 -3.432410
v 4.733556 -1.061150 -3.432410
v 4.306182 -1.061150 -3.731573
v 4.292983 -0.977822 -3.731573
v 4.292983 -0.977822 -4.054668
v 4.306182 -1.061150 -4.054668
v 4.306182 -1.061150 -3.731573
v 4.292983 -0.977822 -3.731573
v 4.292983 -0.977822 -3.731573
v 4.306182 -1.061150 -3.731573
v 4.306182 -1.061150 -4.054668
v 4.292983 -0.977822 -4.054668
v 4.688026 -0.587808 -3.522158
v 4.802409 -0.812299 -3.522158
v 4.851184 -0.796451 -4.042703
v 4.729515 -0.557663 -4.042703
v 4.729515 -0.557663 -4.042703
v 4.851184 -0.796451 -4.042703
v 4.802409 -0.812299 -3.522158
v 4.688026 -0.587808 -3.522158
v 4.600435 -0.651446 -2.995630
v 4.69944 -0.845756 -2.995630
v 4.802409 -0.812299 -3.522158
v 4.688026 -0.587808 -3.522158
v 4.688026 -0.587808 -3.522158
v 4.802409 -0.812299 -3.522158
v 4.69944 -0.845756 -2.995630
v 4.600435 -0.651446 -2.995630
v 4.600435 -0.651446 -3.432410
v 4.69944 -0.845756 -3.432410
v 4.69944 -0.845756 -2.995630
v 4.600435 -0.651446 -2.995630
v 4.600435 -0.651446 -2.995630
v 4.69944 -0.845756 -2.995630
v 4.69944 -0.845756 -3.432410
v 4.600435 -0.651446 -3.432410
v 4.254682 -0.902650 -3.731573
v 4.292983 -0.977822 -3.731573
v 4.69944 -0.845756 -3.432410
v 4.600435 -0.651446 -3.432410
v 4.600435 -0.651446 -3.432410
v 4.69944 -0.845756 -3.432410
v 4.292983 -0.977822 -3.731573
v 4.254682 -0.902650 -3.731573
v 4.254682 -0.902650 -4.054668
v 4.292983 -0.977822 -4.054668
v 4.292983 -0.977822 -3.731573
v 4.254682 -0.902650 -3.731573
v 4.254682 -0.902650 -3.731573
v 4.292983 -0.977822 -3.731573
v 4.292983 -0.977822 -4.054668
v 4.254682 -0.902650 -4.054668
v 4.509868 -0.409650 -3.522158
v 4.688026 -0.587808 -3.522158
v 4.729515 -0.557663 -4.042703
v 4.540013 -0.368160 -4.042703
v 4.540013 -0.368160 -4.042703
v 4.729515 -0.557663 -4.042703
v 4.688026 -0.587808 -3.522158
v 4.509868 -0.409650 -3.522158
v 4.446229 -0.497240 -2.995630
v 4.600435 -0.651446 -2.995630
v 4.688026 -0.587808 -3.522158
v 4.509868 -0.409650 -3.522158
v 4.509868 -0.409650 -3.522158
v 4.688026 -0.587808 -3.522158
v 4.600435 -0.651446 -2.995630
v 4.446229 -0.497240 -2.995630
v 4.446229 -0.497240 -3.432410
v 4.600435 -0.651446 -3.432410
v 4.600435 -0.651446 -2.995630
v 4.446229 -0.497240 -2.995630
v 4.446229 -0.497240 -2.995630
v 4.600435 -0.651446 -2.995630
v 4.600435 -0.651446 -3.432410
v 4.446229 -0.497240 -3.432410
v 4.195026 -0.842994 -3.731573
v 4.254682 -0.902650 -3.731573
v 4.600435 -0.651446 -3.432410
v 4.446229 -0.497240 -3.432410
v 4.446229 -0.497240 -3.432410
v 4.600435 -0.651446 -3.432410
v 4.254682 -0.902650 -3.731573
v 4.195026 -0.842994 -3.731573
v 4.195026 -0.842994 -4.054668
v 4.254682 -0.902650 -4.054668
v 4.254682 -0.902650 -3.731573
v 4.195026 -0.842994 -3.731573
v 4.195026 -0.842994 -3.731573
v 4.254682 -0.902650 -3.731573
v 4.254682 -0.902650 -4.054668
v 4.195026 -0.842994 -4.054668
v 4.285377 -0.295266 -3.522158
v 4.509868 -0.409650 -3.522158
v 4.540013 -0.368160 -4.042703
v 4.301225 -0.246491 -4.042703
v 4.301225 -0.246491 -4.042703
v 4.540013 -0.368160 -4.042703
v 4.509868 -0.409650 -3.522158
v 4.285377 -0.295266 -3.522158
v 4.25192 -0.398235 -2.995630
v 4.446229 -0.497240 -2.995630
v 4.509868 -0.409650 -3.522158
v 4.285377 -0.295266 -3.522158
v 4.285377 -0.295266 -3.522158
v 4.509868 -0.409650 -3.522158
v 4.446229 -0.497240 -2.995630
v 4.25192 -0.398235 -2.995630
v 4.25192 -0.398235 -3.432410
v 4.446229 -0.497240 -3.432410
v 4.446229 -0.497240 -2.995630
v 4.25192 -0.398235 -2.995630
v 4.25192 -0.398235 -2.995630
v 4.446229 -0.497240 -2.995630
v 4.446229 -0.497240 -3.432410
v 4.25192 -0.398235 -3.432410
v 4.119853 -0.804692 -3.731573
v 4.195026 -0.842994 -3.731573
v 4.446229 -0.497240 -3.432410
v 4.25192 -0.398235 -3.432410
v 4.25192 -0.398235 -3.432410
v 4.446229 -0.497240 -3.432410
v 4.195026 -0.842994 -3.731573
v 4.119853 -0.804692 -3.731573
v 4.119853 -0.804692 -4.054668
v 4.195026 -0.842994 -4.054668
v 4.195026 -0.842994 -3.731573
v 4.119853 -0.804692 -3.731573
v 4.119853 -0.804692 -3.731573
v 4.195026 -0.842994 -3.731573
v 4.195026 -0.842994 -4.054668
v 4.119853 -0.804692 -4.054668
v 4.036525 -0.255852 -3.522158
v 4.285377 -0.295266 -3.522158
v 4.301225 -0.246491 -4.042703
v 4.036525 -0.204567 -4.042703
v 4.036525 -0.204567 -4.042703
v 4.301225 -0.246491 -4.042703
v 4.285377 -0.295266 -3.522158
v 4.036525 -0.255852 -3.522158
v 4.036525 -0.364120 -2.995630
v 4.25192 -0.398235 -2.995630
v 4.285377 -0.295266 -3.522158
v 4.036525 -0.255852 -3.522158
v 4.036525 -0.255852 -3.522158
v 4.285377 -0.295266 -3.522158
v 4.25192 -0.398235 -2.995630
v 4.036525 -0.364120 -2.995630
v 4.036525 -0.364120 -3.432410
v 4.25192 -0.398235 -3.432410
v 4.25192 -0.398235 -2.995630
v 4.036525 -0.364120 -2.995630
v 4.036525 -0.364120 -2.995630
v 4.25192 -0.398235 -2.995630
v 4.25192 -0.398235 -3.432410
v 4.036525 -0.364120 -3.432410
v 4.036525 -0.791494 -3.731573
v 4.119853 -0.804692 -3.731573
v 4.25192 -0.398235 -3.432410
v 4.036525 -0.364120 -3.432410
v 4.036525 -0.364120 -3.432410
v 4.25192 -0.398235 -3.432410
v 4.119853 -0.804692 -3.731573
v 4.036525 -0.791494 -3.731573
v 4.036525 -0.791494 -4.054668
v 4.119853 -0.804692 -4.054668
v 4.119853 -0.804692 -3.731573
v 4.036525 -0.791494 -3.731573
v 4.036525 -0.791494 -3.731573
v 4.119853 -0.804692 -3.731573
v 4.119853 -0.804692 -4.054668
v 4.036525 -0.791494 -4.054668

vt 0.65758800000000006 0.055845
vt 0.65758800000000006 0.049129
vt 0.61532199999999992 0.040390
vt 0.61532199999999992 0.047534
vt 0.61532199999999992 0.047534
vt 0.61532199999999992 0.040390
vt 0.65758800000000006 0.049129
vt 0.65758800000000006 0.055845
vt 0.70034 0.073391
vt 0.70034 0.067578
vt 0.65758800000000006 0.049129
vt 0.65758800000000006 0.055845
vt 0.65758800000000006 0.055845
vt 0.65758800000000006 0.049129
vt 0.70034 0.067578
vt 0.70034 0.073391
vt 0.664875 0.073391
vt 0.664875 0.067578
vt 0.70034 0.067578
vt 0.70034 0.073391
vt 0.70034 0.073391
vt 0.70034 0.067578
vt 0.664875 0.067578
vt 0.664875 0.073391
vt 0.640584 0.142652
vt 0.640584 0.140403
vt 0.664875 0.067578
vt 0.664875 0.073391
vt 0.664875 0.073391
vt 0.664875 0.067578
vt 0.640584 0.140403
vt 0.640584 0.142652
vt 0.61435 0.142652
vt 0.61435 0.140403
vt 0.640584 0.140403
vt 0.640584 0.142652
vt 0.640584 0.142652
vt 0.640584 0.140403
vt 0.61435 0.140403
vt 0.61435 0.142652
vt 0.65758800000000006 0.075336
vt 0.65758800000000006 0.055845
vt 0.61532199999999992 0.047534
vt 0.61532199999999992 0.068266
vt 0.61532199999999992 0.068266
vt 0.61532199999999992 0.047534
vt 0.65758800000000006 0.055845
vt 0.65758800000000006 0.075336
vt 0.70034 0.090262
vt 0.70034 0.073391
vt 0.65758800000000006 0.055845
vt 0.65758800000000006 0.075336
vt 0.65758800000000006 0.075336
vt 0.65758800000000006 0.055845
vt 0.70034 0.073391
vt 0.70034 0.090262
vt 0.664875 0.090262
vt 0.664875 0.073391
vt 0.70034 0.073391
vt 0.70034 0.090262
vt 0.70034 0.090262
vt 0.70034 0.073391
vt 0.664875 0.073391
vt 0.664875 0.090262
vt 0.640584 0.149178
vt 0.640584 0.142652
vt 0.664875 0.073391
vt 0.664875 0.090262
vt 0.664875 0.090262
vt 0.664875 0.073391
vt 0.640584 0.142652
vt 0.640584 0.149178
vt 0.61435 0.149178
vt 0.61435 0.142652
vt 0.640584 0.142652
vt 0.640584 0.149178
vt 0.640584 0.149178
vt 0.640584 0.142652
vt 0.61435 0.142652
vt 0.61435 0.149178
vt 0.65758800000000006 0.105694
vt 0.65758800000000006 0.075336
vt 0.61532199999999992 0.068266
vt 0.61532199999999992 0.100558
vt 0.61532199999999992 0.100558
vt 0.61532199999999992 0.068266
vt 0.65758800000000006 0.075336
vt 0.65758800000000006 0.105694
vt 0.70034 0.116539
vt 0.70034 0.090262
vt 0.65758800000000006 0.075336
vt 0.65758800000000006 0.105694
vt 0.65758800000000006 0.105694
vt 0.65758800000000006 0.075336
vt 0.70034 0.090262
vt 0.70034 0.116539
vt 0.664875 0.116539
vt 0.664875 0.090262
vt 0.70034 0.090262
vt 0.70034 0.116539
vt 0.70034 0.116539
vt 0.70034 0.090262
vt 0.664875 0.090262
vt 0.664875 0.116539
vt 0.640584 0.159344
vt 0.640584 0.149178
vt 0.664875 0.090262
vt 0.664875 0.116539
vt 0.664875 0.116539
vt 0.664875 0.090262
vt 0.640584 0.149178
vt 0.640584 0.159344
vt 0.61435 0.159344
vt 0.61435 0.149178
vt 0.640584 0.149178
vt 0.640584 0.159344
vt 0.640584 0.159344
vt 0.640584 0.149178
vt 0.61435 0.149178
vt 0.61435 0.159344
vt 0.65758800000000006 0.143948
vt 0.65758800000000006 0.105694
vt 0.61532199999999992 0.100558
vt 0.61532199999999992 0.141247
vt 0.61532199999999992 0.141247
vt 0.61532199999999992 0.100558
vt 0.65758800000000006 0.105694
vt 0.65758800000000006 0.143948
vt 0.70034 0.149649
vt 0.70034 0.116539
vt 0.65758800000000006 0.105694
vt 0.65758800000000006 0.143948
vt 0.65758800000000006 0.143948
vt 0.65758800000000006 0.105694
vt 0.70034 0.116539
vt 0.70034 0.149649
vt 0.664875 0.149649
vt 0.664875 0.116539
vt 0.70034 0.116539
vt 0.70034 0.149649
vt 0.70034 0.149649
vt 0.70034 0.116539
vt 0.664875 0.116539
vt 0.664875 0.149649
vt 0.640584 0.172153
vt 0.640584 0.159344
vt 0.664875 0.116539
vt 0.664875 0.149649
vt 0.664875 0.149649
vt 0.664875 0.116539
vt 0.640584 0.159344
vt 0.640584 0.172153
vt 0.61435 0.172153
vt 0.61435 0.159344
vt 0.640584 0.159344
vt 0.640584 0.172153
vt 0.640584 0.172153
vt 0.640584 0.159344
vt 0.61435 0.159344
vt 0.61435 0.172153
vt 0.65758800000000006 0.186352
vt 0.65758800000000006 0.143948
vt 0.61532199999999992 0.141247
vt 0.61532199999999992 0.186352
vt 0.61532199999999992 0.186352
vt 0.61532199999999992 0.141247
vt 0.65758800000000006 0.143948
vt 0.65758800000000006 0.186352
vt 0.70034 0.186352
vt 0.70034 0.149649
vt 0.65758800000000006 0.143948
vt 0.65758800000000006 0.186352
vt 0.65758800000000006 0.186352
vt 0.65758800000000006 0.143948
vt 0.70034 0.149649
vt 0.70034 0.186352
vt 0.664875 0.186352
vt 0.664875 0.149649
vt 0.70034 0.149649
vt 0.70034 0.186352
vt 0.70034 0.186352
vt 0.70034 0.149649
vt 0.664875 0.149649
vt 0.664875 0.186352
vt 0.640584 0.186352
vt 0.640584 0.172153
vt 0.664875 0.149649
vt 0.664875 0.186352
vt 0.664875 0.186352
vt 0.664875 0.149649
vt 0.640584 0.172153
vt 0.640584 0.186352
vt 0.61435 0.186352
vt 0.61435 0.172153
vt 0.640584 0.172153
vt 0.640584 0.186352
vt 0.640584 0.186352
vt 0.640584 0.172153
vt 0.61435 0.172153
vt 0.61435 0.186352
vt 0.65758800000000006 0.228300
vt 0.65758800000000006 0.186352
vt 0.61532199999999992 0.186352
vt 0.61532199999999992 0.230921
vt 0.61532199999999992 0.230921
vt 0.61532199999999992 0.186352
vt 0.65758800000000006 0.186352
vt 0.65758800000000006 0.228300
vt 0.70034 0.223056
vt 0.70034 0.186352
vt 0.65758800000000006 0.186352
vt 0.65758800000000006 0.228300
vt 0.65758800000000006 0.228300
vt 0.65758800000000006 0.186352
vt 0.70034 0.186352
vt 0.70034 0.223056
vt 0.664875 0.222768
vt 0.664875 0.186352
vt 0.70034 0.186352
vt 0.70034 0.223056
vt 0.70034 0.223056
vt 0.70034 0.186352
vt 0.664875 0.186352
vt 0.664875 0.222768
vt 0.640584 0.200552
vt 0.640584 0.186352
vt 0.664875 0.186352
vt 0.664875 0.222768
vt 0.664875 0.222768
vt 0.664875 0.186352
vt 0.640584 0.186352
vt 0.640584 0.200552
vt 0.61435 0.200552
vt 0.61435 0.186352
vt 0.640584 0.186352
vt 0.640584 0.200552
vt 0.640584 0.200552
vt 0.640584 0.186352
vt 0.61435 0.186352
vt 0.61435 0.200552
vt 0.65758800000000006 0.264242
vt 0.65758800000000006 0.228300
vt 0.61532199999999992 0.230921
vt 0.61532199999999992 0.268905
vt 0.61532199999999992 0.268905
vt 0.61532199999999992 0.230921
vt 0.65758800000000006 0.228300
vt 0.65758800000000006 0.264242
vt 0.70034 0.256167
vt 0.70034 0.223056
vt 0.65758800000000006 0.228300
vt 0.65758800000000006 0.264242
vt 0.65758800000000006 0.264242
vt 0.65758800000000006 0.228300
vt 0.70034 0.223056
vt 0.70034 0.256167
vt 0.664875 0.254397
vt 0.664875 0.222768
vt 0.70034 0.223056
vt 0.70034 0.256167
vt 0.70034 0.256167
vt 0.70034 0.223056
vt 0.664875 0.222768
vt 0.664875 0.254397
vt 0.640584 0.213361
vt 0.640584 0.200552
vt 0.664875 0.222768
vt 0.664875 0.254397
vt 0.664875 0.254397
vt 0.664875 0.222768
vt 0.640584 0.200552
vt 0.640584 0.213361
vt 0.61435 0.213361
vt 0.61435 0.200552
vt 0.640584 0.200552
vt 0.640584 0.213361
vt 0.640584 0.213361
vt 0.640584 0.200552
vt 0.61435 0.200552
vt 0.61435 0.213361
vt 0.65758800000000006 0.291802
vt 0.65758800000000006 0.264242
vt 0.61532199999999992 0.268905
vt 0.61532199999999992 0.298220
vt 0.61532199999999992 0.298220
vt 0.61532199999999992 0.268905
vt 0.65758800000000006 0.264242
vt 0.65758800000000006 0.291802
vt 0.70034 0.282443
vt 0.70034 0.256167
vt 0.65758800000000006 0.264242
vt 0.65758800000000006 0.291802
vt 0.65758800000000006 0.291802
vt 0.65758800000000006 0.264242
vt 0.70034 0.256167
vt 0.70034 0.282443
vt 0.664875 0.278252
vt 0.664875 0.254397
vt 0.70034 0.256167
vt 0.70034 0.282443
vt 0.70034 0.282443
vt 0.70034 0.256167
vt 0.664875 0.254397
vt 0.664875 0.278252
vt 0.640584 0.223225
vt 0.640584 0.213361
vt 0.664875 0.254397
vt 0.664875 0.278252
vt 0.664875 0.278252
vt 0.664875 0.254397
vt 0.640584 0.213361
vt 0.640584 0.223225
vt 0.61435 0.223225
vt 0.61435 0.213361
vt 0.640584 0.213361
vt 0.640584 0.223225
vt 0.640584 0.223225
vt 0.640584 0.213361
vt 0.61435 0.213361
vt 0.61435 0.223225
vt 0.65758800000000006 0.309497
vt 0.65758800000000006 0.291802
vt 0.61532199999999992 0.298220
vt 0.61532199999999992 0.317042
vt 0.61532199999999992 0.317042
vt 0.61532199999999992 0.298220
vt 0.65758800000000006 0.291802
vt 0.65758800000000006 0.309497
vt 0.70034 0.299314
vt 0.70034 0.282443
vt 0.65758800000000006 0.291802
vt 0.65758800000000006 0.309497
vt 0.65758800000000006 0.309497
vt 0.65758800000000006 0.291802
vt 0.70034 0.282443
vt 0.70034 0.299314
vt 0.664875 0.293568
vt 0.664875 0.278252
vt 0.70034 0.282443
vt 0.70034 0.299314
vt 0.70034 0.299314
vt 0.70034 0.282443
vt 0.664875 0.278252
vt 0.664875 0.293568
vt 0.640584 0.229558
vt 0.640584 0.223225
vt 0.664875 0.278252
vt 0.664875 0.293568
vt 0.664875 0.293568
vt 0.664875 0.278252
vt 0.640584 0.223225
vt 0.640584 0.229558
vt 0.61435 0.229558
vt 0.61435 0.223225
vt 0.640584 0.223225
vt 0.640584 0.229558
vt 0.640584 0.229558
vt 0.640584 0.223225
vt 0.61435 0.223225
vt 0.61435 0.229558
vt 0.65758800000000006 0.315594
vt 0.65758800000000006 0.309497
vt 0.61532199999999992 0.317042
vt 0.61532199999999992 0.323527
vt 0.61532199999999992 0.323527
vt 0.61532199999999992 0.317042
vt 0.65758800000000006 0.309497
vt 0.65758800000000006 0.315594
vt 0.70034 0.305127
vt 0.70034 0.299314
vt 0.65758800000000006 0.309497
vt 0.65758800000000006 0.315594
vt 0.65758800000000006 0.315594
vt 0.65758800000000006 0.309497
vt 0.70034 0.299314
vt 0.70034 0.305127
vt 0.664875 0.298845
vt 0.664875 0.293568
vt 0.70034 0.299314
vt 0.70034 0.305127
vt 0.70034 0.305127
vt 0.70034 0.299314
vt 0.664875 0.293568
vt 0.664875 0.298845
vt 0.640584 0.231740
vt 0.640584 0.229558
vt 0.664875 0.293568
vt 0.664875 0.298845
vt 0.664875 0.298845
vt 0.664875 0.293568
vt 0.640584 0.229558
vt 0.640584 0.231740
vt 0.61435 0.231740
vt 0.61435 0.229558
vt 0.640584 0.229558
vt 0.640584 0.231740
vt 0.640584 0.231740
vt 0.640584 0.229558
vt 0.61435 0.229558
vt 0.61435 0.231740
vt 0.30519300000000005 0.311250
vt 0.30519300000000005 0.317339
vt 0.347376 0.325263
vt 0.347376 0.318786
vt 0.347376 0.318786
vt 0.347376 0.325263
vt 0.30519300000000005 0.317339
vt 0.30519300000000005 0.311250
vt 0.26252600000000004 0.301081
vt 0.26252600000000004 0.306887
vt 0.30519300000000005 0.317339
vt 0.30519300000000005 0.311250
vt 0.30519300000000005 0.311250
vt 0.30519300000000005 0.317339
vt 0.26252600000000004 0.306887
vt 0.26252600000000004 0.301081
vt 0.297921 0.295342
vt 0.297921 0.300613
vt 0.26252600000000004 0.306887
vt 0.26252600000000004 0.301081
vt 0.26252600000000004 0.301081
vt 0.26252600000000004 0.306887
vt 0.297921 0.300613
vt 0.297921 0.295342
vt 0.322164 0.231415
vt 0.322164 0.233595
vt 0.297921 0.300613
vt 0.297921 0.295342
vt 0.297921 0.295342
vt 0.297921 0.300613
vt 0.322164 0.233595
vt 0.322164 0.231415
vt 0.34834600000000004 0.231415
vt 0.34834600000000004 0.233595
vt 0.322164 0.233595
vt 0.322164 0.231415
vt 0.322164 0.231415
vt 0.322164 0.233595
vt 0.34834600000000004 0.233595
vt 0.34834600000000004 0.231415
vt 0.30519300000000005 0.293578
vt 0.30519300000000005 0.311250
vt 0.347376 0.318786
vt 0.347376 0.299988
vt 0.347376 0.299988
vt 0.347376 0.318786
vt 0.30519300000000005 0.311250
vt 0.30519300000000005 0.293578
vt 0.26252600000000004 0.284232
vt 0.26252600000000004 0.301081
vt 0.30519300000000005 0.311250
vt 0.30519300000000005 0.293578
vt 0.30519300000000005 0.293578
vt 0.30519300000000005 0.311250
vt 0.26252600000000004 0.301081
vt 0.26252600000000004 0.284232
vt 0.297921 0.280046
vt 0.297921 0.295342
vt 0.26252600000000004 0.301081
vt 0.26252600000000004 0.284232
vt 0.26252600000000004 0.284232
vt 0.26252600000000004 0.301081
vt 0.297921 0.295342
vt 0.297921 0.280046
vt 0.322164 0.225090
vt 0.322164 0.231415
vt 0.297921 0.295342
vt 0.297921 0.280046
vt 0.297921 0.280046
vt 0.297921 0.295342
vt 0.322164 0.231415
vt 0.322164 0.225090
vt 0.34834600000000004 0.225090
vt 0.34834600000000004 0.231415
vt 0.322164 0.231415
vt 0.322164 0.225090
vt 0.322164 0.225090
vt 0.322164 0.231415
vt 0.34834600000000004 0.231415
vt 0.34834600000000004 0.225090
vt 0.30519300000000005 0.266054
vt 0.30519300000000005 0.293578
vt 0.347376 0.299988
vt 0.347376 0.270711
vt 0.347376 0.270711
vt 0.347376 0.299988
vt 0.30519300000000005 0.293578
vt 0.30519300000000005 0.266054
vt 0.26252600000000004 0.257989
vt 0.26252600000000004 0.284232
vt 0.30519300000000005 0.293578
vt 0.30519300000000005 0.266054
vt 0.30519300000000005 0.266054
vt 0.30519300000000005 0.293578
vt 0.26252600000000004 0.284232
vt 0.26252600000000004 0.257989
vt 0.297921 0.256222
vt 0.297921 0.280046
vt 0.26252600000000004 0.284232
vt 0.26252600000000004 0.257989
vt 0.26252600000000004 0.257989
vt 0.26252600000000004 0.284232
vt 0.297921 0.280046
vt 0.297921 0.256222
vt 0.322164 0.215239
vt 0.322164 0.225090
vt 0.297921 0.280046
vt 0.297921 0.256222
vt 0.297921 0.256222
vt 0.297921 0.280046
vt 0.322164 0.225090
vt 0.322164 0.215239
vt 0.34834600000000004 0.215239
vt 0.34834600000000004 0.225090
vt 0.322164 0.225090
vt 0.322164 0.215239
vt 0.322164 0.215239
vt 0.322164 0.225090
vt 0.34834600000000004 0.225090
vt 0.34834600000000004 0.215239
vt 0.30519300000000005 0.230159
vt 0.30519300000000005 0.266054
vt 0.347376 0.270711
vt 0.347376 0.232776
vt 0.347376 0.232776
vt 0.347376 0.270711
vt 0.30519300000000005 0.266054
vt 0.30519300000000005 0.230159
vt 0.26252600000000004 0.224921
vt 0.26252600000000004 0.257989
vt 0.30519300000000005 0.266054
vt 0.30519300000000005 0.230159
vt 0.30519300000000005 0.230159
vt 0.30519300000000005 0.266054
vt 0.26252600000000004 0.257989
vt 0.26252600000000004 0.224921
vt 0.297921 0.224634
vt 0.297921 0.256222
vt 0.26252600000000004 0.257989
vt 0.26252600000000004 0.224921
vt 0.26252600000000004 0.224921
vt 0.26252600000000004 0.257989
vt 0.297921 0.256222
vt 0.297921 0.224634
vt 0.322164 0.202446
vt 0.322164 0.215239
vt 0.297921 0.256222
vt 0.297921 0.224634
vt 0.297921 0.224634
vt 0.297921 0.256222
vt 0.322164 0.215239
vt 0.322164 0.202446
vt 0.34834600000000004 0.202446
vt 0.34834600000000004 0.215239
vt 0.322164 0.215239
vt 0.322164 0.202446
vt 0.322164 0.202446
vt 0.322164 0.215239
vt 0.34834600000000004 0.215239
vt 0.34834600000000004 0.202446
vt 0.30519300000000005 0.188266
vt 0.30519300000000005 0.230159
vt 0.347376 0.232776
vt 0.347376 0.188266
vt 0.347376 0.188266
vt 0.347376 0.232776
vt 0.30519300000000005 0.230159
vt 0.30519300000000005 0.188266
vt 0.26252600000000004 0.188266
vt 0.26252600000000004 0.224921
vt 0.30519300000000005 0.230159
vt 0.30519300000000005 0.188266
vt 0.30519300000000005 0.188266
vt 0.30519300000000005 0.230159
vt 0.26252600000000004 0.224921
vt 0.26252600000000004 0.188266
vt 0.297921 0.188266
vt 0.297921 0.224634
vt 0.26252600000000004 0.224921
vt 0.26252600000000004 0.188266
vt 0.26252600000000004 0.188266
vt 0.26252600000000004 0.224921
vt 0.297921 0.224634
vt 0.297921 0.188266
vt 0.322164 0.188266
vt 0.322164 0.202446
vt 0.297921 0.224634
vt 0.297921 0.188266
vt 0.297921 0.188266
vt 0.297921 0.224634
vt 0.322164 0.202446
vt 0.322164 0.188266
vt 0.34834600000000004 0.188266
vt 0.34834600000000004 0.202446
vt 0.322164 0.202446
vt 0.322164 0.188266
vt 0.322164 0.188266
vt 0.322164 0.202446
vt 0.34834600000000004 0.202446
vt 0.34834600000000004 0.188266
vt 0.30519300000000005 0.145916
vt 0.30519300000000005 0.188266
vt 0.347376 0.188266
vt 0.347376 0.143219
vt 0.347376 0.143219
vt 0.347376 0.188266
vt 0.30519300000000005 0.188266
vt 0.30519300000000005 0.145916
vt 0.26252600000000004 0.151610
vt 0.26252600000000004 0.188266
vt 0.30519300000000005 0.188266
vt 0.30519300000000005 0.145916
vt 0.30519300000000005 0.145916
vt 0.30519300000000005 0.188266
vt 0.26252600000000004 0.188266
vt 0.26252600000000004 0.151610
vt 0.297921 0.151610
vt 0.297921 0.188266
vt 0.26252600000000004 0.188266
vt 0.26252600000000004 0.151610
vt 0.26252600000000004 0.151610
vt 0.26252600000000004 0.188266
vt 0.297921 0.188266
vt 0.297921 0.151610
vt 0.322164 0.174085
vt 0.322164 0.188266
vt 0.297921 0.188266
vt 0.297921 0.151610
vt 0.297921 0.151610
vt 0.297921 0.188266
vt 0.322164 0.188266
vt 0.322164 0.174085
vt 0.34834600000000004 0.174085
vt 0.34834600000000004 0.188266
vt 0.322164 0.188266
vt 0.322164 0.174085
vt 0.322164 0.174085
vt 0.322164 0.188266
vt 0.34834600000000004 0.188266
vt 0.34834600000000004 0.174085
vt 0.30519300000000005 0.107712
vt 0.30519300000000005 0.145916
vt 0.347376 0.143219
vt 0.347376 0.102582
vt 0.347376 0.102582
vt 0.347376 0.143219
vt 0.30519300000000005 0.145916
vt 0.30519300000000005 0.107712
vt 0.26252600000000004 0.118542
vt 0.26252600000000004 0.151610
vt 0.30519300000000005 0.145916
vt 0.30519300000000005 0.107712
vt 0.30519300000000005 0.107712
vt 0.30519300000000005 0.145916
vt 0.26252600000000004 0.151610
vt 0.26252600000000004 0.118542
vt 0.297921 0.118542
vt 0.297921 0.151610
vt 0.26252600000000004 0.151610
vt 0.26252600000000004 0.118542
vt 0.26252600000000004 0.118542
vt 0.26252600000000004 0.151610
vt 0.297921 0.151610
vt 0.297921 0.118542
vt 0.322164 0.161292
vt 0.322164 0.174085
vt 0.297921 0.151610
vt 0.297921 0.118542
vt 0.297921 0.118542
vt 0.297921 0.151610
vt 0.322164 0.174085
vt 0.322164 0.161292
vt 0.34834600000000004 0.161292
vt 0.34834600000000004 0.174085
vt 0.322164 0.174085
vt 0.322164 0.161292
vt 0.322164 0.161292
vt 0.322164 0.174085
vt 0.34834600000000004 0.174085
vt 0.34834600000000004 0.161292
vt 0.30519300000000005 0.077393
vt 0.30519300000000005 0.107712
vt 0.347376 0.102582
vt 0.347376 0.070332
vt 0.347376 0.070332
vt 0.347376 0.102582
vt 0.30519300000000005 0.107712
vt 0.30519300000000005 0.077393
vt 0.26252600000000004 0.092299
vt 0.26252600000000004 0.118542
vt 0.30519300000000005 0.107712
vt 0.30519300000000005 0.077393
vt 0.30519300000000005 0.077393
vt 0.30519300000000005 0.107712
vt 0.26252600000000004 0.118542
vt 0.26252600000000004 0.092299
vt 0.297921 0.092299
vt 0.297921 0.118542
vt 0.26252600000000004 0.118542
vt 0.26252600000000004 0.092299
vt 0.26252600000000004 0.092299
vt 0.26252600000000004 0.118542
vt 0.297921 0.118542
vt 0.297921 0.092299
vt 0.322164 0.151140
vt 0.322164 0.161292
vt 0.297921 0.118542
vt 0.297921 0.092299
vt 0.297921 0.092299
vt 0.297921 0.118542
vt 0.322164 0.161292
vt 0.322164 0.151140
vt 0.34834600000000004 0.151140
vt 0.34834600000000004 0.161292
vt 0.322164 0.161292
vt 0.322164 0.151140
vt 0.322164 0.151140
vt 0.322164 0.161292
vt 0.34834600000000004 0.161292
vt 0.34834600000000004 0.151140
vt 0.30519300000000005 0.057927
vt 0.30519300000000005 0.077393
vt 0.347376 0.070332
vt 0.347376 0.049627
vt 0.347376 0.049627
vt 0.347376 0.070332
vt 0.30519300000000005 0.077393
vt 0.30519300000000005 0.057927
vt 0.26252600000000004 0.075450
vt 0.26252600000000004 0.092299
vt 0.30519300000000005 0.077393
vt 0.30519300000000005 0.057927
vt 0.30519300000000005 0.057927
vt 0.30519300000000005 0.077393
vt 0.26252600000000004 0.092299
vt 0.26252600000000004 0.075450
vt 0.297921 0.075450
vt 0.297921 0.092299
vt 0.26252600000000004 0.092299
vt 0.26252600000000004 0.075450
vt 0.26252600000000004 0.075450
vt 0.26252600000000004 0.092299
vt 0.297921 0.092299
vt 0.297921 0.075450
vt 0.322164 0.144621
vt 0.322164 0.151140
vt 0.297921 0.092299
vt 0.297921 0.075450
vt 0.297921 0.075450
vt 0.297921 0.092299
vt 0.322164 0.151140
vt 0.322164 0.144621
vt 0.34834600000000004 0.144621
vt 0.34834600000000004 0.151140
vt 0.322164 0.151140
vt 0.322164 0.144621
vt 0.322164 0.144621
vt 0.322164 0.151140
vt 0.34834600000000004 0.151140
vt 0.34834600000000004 0.144621
vt 0.30519300000000005 0.051220
vt 0.30519300000000005 0.057927
vt 0.347376 0.049627
vt 0.347376 0.042492
vt 0.347376 0.042492
vt 0.347376 0.049627
vt 0.30519300000000005 0.057927
vt 0.30519300000000005 0.051220
vt 0.26252600000000004 0.069645
vt 0.26252600000000004 0.075450
vt 0.30519300000000005 0.057927
vt 0.30519300000000005 0.051220
vt 0.30519300000000005 0.051220
vt 0.30519300000000005 0.057927
vt 0.26252600000000004 0.075450
vt 0.26252600000000004 0.069645
vt 0.297921 0.069645
vt 0.297921 0.075450
vt 0.26252600000000004 0.075450
vt 0.26252600000000004 0.069645
vt 0.26252600000000004 0.069645
vt 0.26252600000000004 0.075450
vt 0.297921 0.075450
vt 0.297921 0.069645
vt 0.322164 0.142375
vt 0.322164 0.144621
vt 0.297921 0.075450
vt 0.297921 0.069645
vt 0.297921 0.069645
vt 0.297921 0.075450
vt 0.322164 0.144621
vt 0.322164 0.142375
vt 0.34834600000000004 0.142375
vt 0.34834600000000004 0.144621
vt 0.322164 0.144621
vt 0.322164 0.142375
vt 0.322164 0.142375
vt 0.322164 0.144621
vt 0.34834600000000004 0.144621
vt 0.34834600000000004 0.142375

vn 0.155698 -0.983045 -0.096851
vn -0.155699 0.983045 0.096851
vn 0.153305 -0.967928 -0.199031
vn -0.153304 0.967928 0.199031
vn -0.156435 0.987688 0.000000
vn 0.156435 -0.987688 0.000000
vn -0.090456 0.571113 -0.815872
vn 0.090456 -0.571113 0.815872
vn -0.156436 0.987688 0.000000
vn 0.156436 -0.987688 0.000000
vn 0.45186 -0.886816 -0.096850
vn -0.451856 0.886818 0.096850
vn 0.444906 -0.873181 -0.199033
vn -0.444911 0.873178 0.199033
vn -0.453989 0.891007 0.000000
vn 0.453989 -0.891007 0.000000
vn -0.262509 0.515210 -0.815872
vn 0.262511 -0.515209 0.815872
vn -0.453986 0.891009 0.000000
vn 0.453986 -0.891009 0.000000
vn 0.703777 -0.703788 -0.096853
vn -0.703784 0.703781 0.096853
vn 0.692955 -0.692964 -0.199032
vn -0.692954 0.692966 0.199032
vn -0.707102 0.707111 0.000000
vn 0.707102 -0.707111 0.000000
vn -0.40888 0.408867 -0.815871
vn 0.40887 -0.408875 0.815872
vn -0.707119 0.707095 0.000000
vn 0.707119 -0.707095 0.000000
vn 0.88682 -0.451852 -0.096847
vn -0.875586 0.473185 0.097187
vn 0.873184 -0.444901 -0.199032
vn -0.873182 0.444903 0.199032
vn -0.89101 0.453984 0.000000
vn 0.89101 -0.453984 0.000000
vn -0.515203 0.262516 -0.815874
vn 0.515209 -0.262507 0.815873
vn -0.891001 0.454000 0.000000
vn 0.891001 -0.454000 0.000000
vn 0.981627 -0.155474 -0.110621
vn -0.985548 0.128632 0.110227
vn 0.967926 -0.153313 -0.199034
vn -0.967927 0.153304 0.199033
vn -0.987687 0.156443 0.000000
vn 0.987687 -0.156443 0.000000
vn -0.571115 0.090450 -0.815871
vn 0.571112 -0.090460 0.815872
vn -0.98769 0.156424 0.000000
vn 0.98769 -0.156424 0.000000
vn 0.982784 0.157352 -0.096826
vn -0.982756 -0.157528 0.096823
vn 0.967927 0.153313 -0.199029
vn -0.967679 -0.154934 0.198978
vn -0.987495 -0.157648 0.000000
vn 0.987687 0.156443 0.000000
vn -0.571112 -0.090449 -0.815874
vn 0.571074 0.091169 0.815820
vn -0.98769 -0.156424 0.000000
vn 0.98769 0.156424 0.000000
vn 0.874999 0.474510 -0.096005
vn -0.873709 -0.476891 0.095955
vn 0.873575 0.445100 -0.196856
vn -0.862026 -0.467474 0.195906
vn -0.882333 -0.470622 -0.001819
vn 0.891009 0.453983 0.001754
vn -0.51583 -0.262836 -0.815375
vn 0.511907 0.273043 0.814493
vn -0.891001 -0.454000 0.000000
vn 0.891001 0.454000 0.000000
vn 0.6693 0.737262 -0.092103
vn -0.669307 -0.737255 0.092103
vn 0.695761 0.695775 -0.178366
vn -0.661703 -0.728893 0.175681
vn -0.67205 -0.740296 -0.017598
vn 0.707 0.707014 0.016807
vn -0.40813 -0.420596 -0.810265
vn 0.395746 0.435934 0.808299
vn -0.696392 -0.717662 0.000000
vn 0.696392 0.717662 0.000000
vn 0.418137 0.903952 -0.089624
vn -0.418135 -0.903953 0.089624
vn 0.449113 0.881429 -0.146222
vn -0.415458 -0.898158 0.143899
vn -0.419277 -0.906422 -0.051043
vn 0.453422 0.889886 0.050111
vn -0.265099 -0.536195 -0.801385
vn 0.252029 0.544855 0.799759
vn -0.443199 -0.896423 0.000000
vn 0.443199 0.896423 0.000000
vn 0.14177 0.985964 -0.088186
vn -0.141768 -0.985964 0.088186
vn 0.155283 0.980415 -0.121136
vn -0.141288 -0.982608 0.120495
vn -0.141911 -0.986942 -0.076198
vn 0.155982 0.984829 0.076035
vn -0.092251 -0.600276 -0.794455
vn 0.086539 0.601849 0.793908
vn -0.151898 -0.988396 0.000000
vn 0.151898 0.988396 0.000000
vn -0.14177 0.985964 -0.088185
vn 0.141767 -0.985964 0.088185
vn -0.155405 0.981197 -0.114463
vn 0.141385 -0.983287 0.114707
vn 0.141829 -0.986384 -0.083255
vn -0.155893 0.984274 0.083077
vn 0.092565 -0.602320 -0.792870
vn -0.086652 0.602642 0.793293
vn 0.151898 -0.988396 0.000000
vn -0.151898 0.988396 0.000000
vn -0.418134 0.903953 -0.089625
vn 0.418137 -0.903952 0.089625
vn -0.450203 0.883576 -0.128885
vn 0.416338 -0.900069 0.128605
vn 0.418797 -0.905385 -0.069901
vn -0.452919 0.888906 0.068629
vn 0.26747 -0.540990 -0.797364
vn -0.25291 0.546759 0.798180
vn 0.443199 -0.896423 0.000000
vn -0.443199 0.896423 0.000000
vn -0.669304 0.737258 -0.092107
vn 0.669307 -0.737255 0.092107
vn -0.698311 0.698311 -0.157240
vn 0.663877 -0.731280 0.156517
vn 0.671576 -0.739764 -0.041659
vn -0.706547 0.706547 0.039789
vn 0.412643 -0.425260 -0.805531
vn -0.397493 0.437852 0.806402
vn 0.69638 -0.717673 0.000000
vn -0.69638 0.717673 0.000000
vn -0.875109 0.474569 -0.094698
vn 0.873815 -0.476944 0.094719
vn -0.875495 0.446083 -0.185792
vn 0.863745 -0.468407 0.185847
vn 0.882277 -0.470597 -0.011187
vn -0.890956 0.453961 0.010791
vn 0.519063 -0.264469 -0.812792
vn -0.513188 0.273729 0.813456
vn 0.891011 -0.453982 0.000000
vn -0.891011 0.453982 0.000000
vn -0.982793 0.157354 -0.096736
vn 0.982764 -0.157533 0.096739
vn -0.968077 0.153333 -0.198282
vn 0.96781 -0.154955 0.198324
vn 0.987496 -0.157644 -0.000609
vn -0.987687 0.156439 0.000605
vn 0.571349 -0.090500 -0.815702
vn -0.571168 0.091181 0.815753
vn 0.987686 -0.156447 0.000000
vn -0.987686 0.156447 0.000000
vn -0.983045 -0.155699 -0.096853
vn 0.983044 0.155702 0.096853
vn -0.967927 -0.153309 -0.199030
vn 0.967928 0.153304 0.199030
vn 0.987688 0.156439 0.000000
vn -0.987688 -0.156439 0.000000
vn 0.571113 0.090463 -0.815872
vn -0.571113 -0.090458 0.815872
vn 0.987686 0.156447 0.000000
vn -0.987686 -0.156447 0.000000
vn -0.886819 -0.451853 -0.096852
vn 0.886817 0.451858 0.096851
vn -0.873182 -0.444904 -0.199032
vn 0.873182 0.444905 0.199032
vn 0.891008 0.453987 0.000000
vn -0.891008 -0.453987 0.000000
vn 0.51521 0.262506 -0.815873
vn -0.515209 -0.262510 0.815873
vn 0.891011 0.453982 0.000000
vn -0.891011 -0.453982 0.000000
vn -0.703783 -0.703783 -0.096850
vn 0.703785 0.703781 0.096850
vn -0.69296 -0.692960 -0.199031
vn 0.69296 0.692960 0.199031
vn 0.707107 0.707107 0.000000
vn -0.707107 -0.707107 0.000000
vn 0.408872 0.408872 -0.815872
vn -0.408872 -0.408872 0.815872
vn 0.707107 0.707107 0.000000
vn -0.707107 -0.707107 0.000000
vn -0.451857 -0.886818 -0.096851
vn 0.451858 0.886817 0.096851
vn -0.444906 -0.873181 -0.199031
vn 0.444908 0.873180 0.199031
vn 0.453989 0.891007 0.000000
vn -0.453989 -0.891007 0.000000
vn 0.262509 0.515210 -0.815873
vn -0.262511 -0.515209 0.815873
vn 0.453986 0.891009 0.000000
vn -0.453986 -0.891009 0.000000
vn -0.155698 -0.983045 -0.096851
vn 0.155698 0.983045 0.096851
vn -0.153304 -0.967928 -0.199031
vn 0.153304 0.967928 0.199031
vn 0.156433 0.987688 0.000000
vn -0.156433 -0.987688 0.000000
vn 0.090456 0.571112 -0.815873
vn -0.090455 -0.571113 0.815873
vn 0.156436 0.987688 0.000000
vn -0.156436 -0.987688 0.000000

usemtl mat1_blank195
f 3/3/1 2/2/1 1/1/1
f 4/4/1 3/3/1 1/1/1
f 7/7/2 6/6/2 5/5/2
f 8/8/2 7/7/2 5/5/2
f 11/11/3 10/10/3 9/9/3
f 12/12/3 11/11/3 9/9/3
f 15/15/4 14/14/4 13/13/4
f 16/16/4 15/15/4 13/13/4
f 19/19/5 18/18/5 17/17/5
f 20/20/5 19/19/5 17/17/5
f 23/23/6 22/22/6 21/21/6
f 24/24/6 23/23/6 21/21/6
f 27/27/7 26/26/7 25/25/7
f 28/28/7 27/27/7 25/25/7
f 31/31/8 30/30/8 29/29/8
f 32/32/8 31/31/8 29/29/8
f 35/35/9 34/34/9 33/33/9
f 36/36/9 35/35/9 33/33/9
f 39/39/10 38/38/10 37/37/10
f 40/40/10 39/39/10 37/37/10
f 43/43/11 42/42/11 41/41/11
f 44/44/11 43/43/11 41/41/11
f 47/47/12 46/46/12 45/45/12
f 48/48/12 47/47/12 45/45/12
f 51/51/13 50/50/13 49/49/13
f 52/52/13 51/51/13 49/49/13
f 55/55/14 54/54/14 53/53/14
f 56/56/14 55/55/14 53/53/14
f 59/59/15 58/58/15 57/57/15
f 60/60/15 59/59/15 57/57/15
f 63/63/16 62/62/16 61/61/16
f 64/64/16 63/63/16 61/61/16
f 67/67/17 66/66/17 65/65/17
f 68/68/17 67/67/17 65/65/17
f 71/71/18 70/70/18 69/69/18
f 72/72/18 71/71/18 69/69/18
f 75/75/19 74/74/19 73/73/19
f 76/76/19 75/75/19 73/73/19
f 79/79/20 78/78/20 77/77/20
f 80/80/20 79/79/20 77/77/20
f 83/83/21 82/82/21 81/81/21
f 84/84/21 83/83/21 81/81/21
f 87/87/22 86/86/22 85/85/22
f 88/88/22 87/87/22 85/85/22
f 91/91/23 90/90/23 89/89/23
f 92/92/23 91/91/23 89/89/23
f 95/95/24 94/94/24 93/93/24
f 96/96/24 95/95/24 93/93/24
f 99/99/25 98/98/25 97/97/25
f 100/100/25 99/99/25 97/97/25
f 103/103/26 102/102/26 101/101/26
f 104/104/26 103/103/26 101/101/26
f 107/107/27 106/106/27 105/105/27
f 108/108/27 107/107/27 105/105/27
f 111/111/28 110/110/28 109/109/28
f 112/112/28 111/111/28 109/109/28
f 115/115/29 114/114/29 113/113/29
f 116/116/29 115/115/29 113/113/29
f 119/119/30 118/118/30 117/117/30
f 120/120/30 119/119/30 117/117/30
f 123/123/31 122/122/31 121/121/31
f 124/124/31 123/123/31 121/121/31
f 127/127/32 126/126/32 125/125/32
f 128/128/32 127/127/32 125/125/32
f 131/131/33 130/130/33 129/129/33
f 132/132/33 131/131/33 129/129/33
f 135/135/34 134/134/34 133/133/34
f 136/136/34 135/135/34 133/133/34
f 139/139/35 138/138/35 137/137/35
f 140/140/35 139/139/35 137/137/35
f 143/143/36 142/142/36 141/141/36
f 144/144/36 143/143/36 141/141/36
f 147/147/37 146/146/37 145/145/37
f 148/148/37 147/147/37 145/145/37
f 151/151/38 150/150/38 149/149/38
f 152/152/38 151/151/38 149/149/38
f 155/155/39 154/154/39 153/153/39
f 156/156/39 155/155/39 153/153/39
f 159/159/40 158/158/40 157/157/40
f 160/160/40 159/159/40 157/157/40
f 163/163/41 162/162/41 161/161/41
f 164/164/41 163/163/41 161/161/41
f 167/167/42 166/166/42 165/165/42
f 168/168/42 167/167/42 165/165/42
f 171/171/43 170/170/43 169/169/43
f 172/172/43 171/171/43 169/169/43
f 175/175/44 174/174/44 173/173/44
f 176/176/44 175/175/44 173/173/44
f 179/179/45 178/178/45 177/177/45
f 180/180/45 179/179/45 177/177/45
f 183/183/46 182/182/46 181/181/46
f 184/184/46 183/183/46 181/181/46
f 187/187/47 186/186/47 185/185/47
f 188/188/47 187/187/47 185/185/47
f 191/191/48 190/190/48 189/189/48
f 192/192/48 191/191/48 189/189/48
f 195/195/49 194/194/49 193/193/49
f 196/196/49 195/195/49 193/193/49
f 199/199/50 198/198/50 197/197/50
f 200/200/50 199/199/50 197/197/50
f 203/203/51 202/202/51 201/201/51
f 204/204/51 203/203/51 201/201/51
f 207/207/52 206/206/52 205/205/52
f 208/208/52 207/207/52 205/205/52
f 211/211/53 210/210/53 209/209/53
f 212/212/53 211/211/53 209/209/53
f 215/215/54 214/214/54 213/213/54
f 216/216/54 215/215/54 213/213/54
f 219/219/55 218/218/55 217/217/55
f 220/220/55 219/219/55 217/217/55
f 223/223/56 222/222/56 221/221/56
f 224/224/56 223/223/56 221/221/56
f 227/227/57 226/226/57 225/225/57
f 228/228/57 227/227/57 225/225/57
f 231/231/58 230/230/58 229/229/58
f 232/232/58 231/231/58 229/229/58
f 235/235/59 234/234/59 233/233/59
f 236/236/59 235/235/59 233/233/59
f 239/239/60 238/238/60 237/237/60
f 240/240/60 239/239/60 237/237/60
f 243/243/61 242/242/61 241/241/61
f 244/244/61 243/243/61 241/241/61
f 247/247/62 246/246/62 245/245/62
f 248/248/62 247/247/62 245/245/62
f 251/251/63 250/250/63 249/249/63
f 252/252/63 251/251/63 249/249/63
f 255/255/64 254/254/64 253/253/64
f 256/256/64 255/255/64 253/253/64
f 259/259/65 258/258/65 257/257/65
f 260/260/65 259/259/65 257/257/65
f 263/263/66 262/262/66 261/261/66
f 264/264/66 263/263/66 261/261/66
f 267/267/67 266/266/67 265/265/67
f 268/268/67 267/267/67 265/265/67
f 271/271/68 270/270/68 269/269/68
f 272/272/68 271/271/68 269/269/68
f 275/275/69 274/274/69 273/273/69
f 276/276/69 275/275/69 273/273/69
f 279/279/70 278/278/70 277/277/70
f 280/280/70 279/279/70 277/277/70
f 283/283/71 282/282/71 281/281/71
f 284/284/71 283/283/71 281/281/71
f 287/287/72 286/286/72 285/285/72
f 288/288/72 287/287/72 285/285/72
f 291/291/73 290/290/73 289/289/73
f 292/292/73 291/291/73 289/289/73
f 295/295/74 294/294/74 293/293/74
f 296/296/74 295/295/74 293/293/74
f 299/299/75 298/298/75 297/297/75
f 300/300/75 299/299/75 297/297/75
f 303/303/76 302/302/76 301/301/76
f 304/304/76 303/303/76 301/301/76
f 307/307/77 306/306/77 305/305/77
f 308/308/77 307/307/77 305/305/77
f 311/311/78 310/310/78 309/309/78
f 312/312/78 311/311/78 309/309/78
f 315/315/79 314/314/79 313/313/79
f 316/316/79 315/315/79 313/313/79
f 319/319/80 318/318/80 317/317/80
f 320/320/80 319/319/80 317/317/80
f 323/323/81 322/322/81 321/321/81
f 324/324/81 323/323/81 321/321/81
f 327/327/82 326/326/82 325/325/82
f 328/328/82 327/327/82 325/325/82
f 331/331/83 330/330/83 329/329/83
f 332/332/83 331/331/83 329/329/83
f 335/335/84 334/334/84 333/333/84
f 336/336/84 335/335/84 333/333/84
f 339/339/85 338/338/85 337/337/85
f 340/340/85 339/339/85 337/337/85
f 343/343/86 342/342/86 341/341/86
f 344/344/86 343/343/86 341/341/86
f 347/347/87 346/346/87 345/345/87
f 348/348/87 347/347/87 345/345/87
f 351/351/88 350/350/88 349/349/88
f 352/352/88 351/351/88 349/349/88
f 355/355/89 354/354/89 353/353/89
f 356/356/89 355/355/89 353/353/89
f 359/359/90 358/358/90 357/357/90
f 360/360/90 359/359/90 357/357/90
f 363/363/91 362/362/91 361/361/91
f 364/364/91 363/363/91 361/361/91
f 367/367/92 366/366/92 365/365/92
f 368/368/92 367/367/92 365/365/92
f 371/371/93 370/370/93 369/369/93
f 372/372/93 371/371/93 369/369/93
f 375/375/94 374/374/94 373/373/94
f 376/376/94 375/375/94 373/373/94
f 379/379/95 378/378/95 377/377/95
f 380/380/95 379/379/95 377/377/95
f 383/383/96 382/382/96 381/381/96
f 384/384/96 383/383/96 381/381/96
f 387/387/97 386/386/97 385/385/97
f 388/388/97 387/387/97 385/385/97
f 391/391/98 390/390/98 389/389/98
f 392/392/98 391/391/98 389/389/98
f 395/395/99 394/394/99 393/393/99
f 396/396/99 395/395/99 393/393/99
f 399/399/100 398/398/100 397/397/100
f 400/400/100 399/399/100 397/397/100
f 403/403/101 402/402/101 401/401/101
f 404/404/101 403/403/101 401/401/101
f 407/407/102 406/406/102 405/405/102
f 408/408/102 407/407/102 405/405/102
f 411/411/103 410/410/103 409/409/103
f 412/412/103 411/411/103 409/409/103
f 415/415/104 414/414/104 413/413/104
f 416/416/104 415/415/104 413/413/104
f 419/419/105 418/418/105 417/417/105
f 420/420/105 419/419/105 417/417/105
f 423/423/106 422/422/106 421/421/106
f 424/424/106 423/423/106 421/421/106
f 427/427/107 426/426/107 425/425/107
f 428/428/107 427/427/107 425/425/107
f 431/431/108 430/430/108 429/429/108
f 432/432/108 431/431/108 429/429/108
f 435/435/109 434/434/109 433/433/109
f 436/436/109 435/435/109 433/433/109
f 439/439/110 438/438/110 437/437/110
f 440/440/110 439/439/110 437/437/110
f 443/443/111 442/442/111 441/441/111
f 444/444/111 443/443/111 441/441/111
f 447/447/112 446/446/112 445/445/112
f 448/448/112 447/447/112 445/445/112
f 451/451/113 450/450/113 449/449/113
f 452/452/113 451/451/113 449/449/113
f 455/455/114 454/454/114 453/453/114
f 456/456/114 455/455/114 453/453/114
f 459/459/115 458/458/115 457/457/115
f 460/460/115 459/459/115 457/457/115
f 463/463/116 462/462/116 461/461/116
f 464/464/116 463/463/116 461/461/116
f 467/467/117 466/466/117 465/465/117
f 468/468/117 467/467/117 465/465/117
f 471/471/118 470/470/118 469/469/118
f 472/472/118 471/471/118 469/469/118
f 475/475/119 474/474/119 473/473/119
f 476/476/119 475/475/119 473/473/119
f 479/479/120 478/478/120 477/477/120
f 480/480/120 479/479/120 477/477/120
f 483/483/121 482/482/121 481/481/121
f 484/484/121 483/483/121 481/481/121
f 487/487/122 486/486/122 485/485/122
f 488/488/122 487/487/122 485/485/122
f 491/491/123 490/490/123 489/489/123
f 492/492/123 491/491/123 489/489/123
f 495/495/124 494/494/124 493/493/124
f 496/496/124 495/495/124 493/493/124
f 499/499/125 498/498/125 497/497/125
f 500/500/125 499/499/125 497/497/125
f 503/503/126 502/502/126 501/501/126
f 504/504/126 503/503/126 501/501/126
f 507/507/127 506/506/127 505/505/127
f 508/508/127 507/507/127 505/505/127
f 511/511/128 510/510/128 509/509/128
f 512/512/128 511/511/128 509/509/128
f 515/515/129 514/514/129 513/513/129
f 516/516/129 515/515/129 513/513/129
f 519/519/130 518/518/130 517/517/130
f 520/520/130 519/519/130 517/517/130
f 523/523/131 522/522/131 521/521/131
f 524/524/131 523/523/131 521/521/131
f 527/527/132 526/526/132 525/525/132
f 528/528/132 527/527/132 525/525/132
f 531/531/133 530/530/133 529/529/133
f 532/532/133 531/531/133 529/529/133
f 535/535/134 534/534/134 533/533/134
f 536/536/134 535/535/134 533/533/134
f 539/539/135 538/538/135 537/537/135
f 540/540/135 539/539/135 537/537/135
f 543/543/136 542/542/136 541/541/136
f 544/544/136 543/543/136 541/541/136
f 547/547/137 546/546/137 545/545/137
f 548/548/137 547/547/137 545/545/137
f 551/551/138 550/550/138 549/549/138
f 552/552/138 551/551/138 549/549/138
f 555/555/139 554/554/139 553/553/139
f 556/556/139 555/555/139 553/553/139
f 559/559/140 558/558/140 557/557/140
f 560/560/140 559/559/140 557/557/140
f 563/563/141 562/562/141 561/561/141
f 564/564/141 563/563/141 561/561/141
f 567/567/142 566/566/142 565/565/142
f 568/568/142 567/567/142 565/565/142
f 571/571/143 570/570/143 569/569/143
f 572/572/143 571/571/143 569/569/143
f 575/575/144 574/574/144 573/573/144
f 576/576/144 575/575/144 573/573/144
f 579/579/145 578/578/145 577/577/145
f 580/580/145 579/579/145 577/577/145
f 583/583/146 582/582/146 581/581/146
f 584/584/146 583/583/146 581/581/146
f 587/587/147 586/586/147 585/585/147
f 588/588/147 587/587/147 585/585/147
f 591/591/148 590/590/148 589/589/148
f 592/592/148 591/591/148 589/589/148
f 595/595/149 594/594/149 593/593/149
f 596/596/149 595/595/149 593/593/149
f 599/599/150 598/598/150 597/597/150
f 600/600/150 599/599/150 597/597/150
f 603/603/151 602/602/151 601/601/151
f 604/604/151 603/603/151 601/601/151
f 607/607/152 606/606/152 605/605/152
f 608/608/152 607/607/152 605/605/152
f 611/611/153 610/610/153 609/609/153
f 612/612/153 611/611/153 609/609/153
f 615/615/154 614/614/154 613/613/154
f 616/616/154 615/615/154 613/613/154
f 619/619/155 618/618/155 617/617/155
f 620/620/155 619/619/155 617/617/155
f 623/623/156 622/622/156 621/621/156
f 624/624/156 623/623/156 621/621/156
f 627/627/157 626/626/157 625/625/157
f 628/628/157 627/627/157 625/625/157
f 631/631/158 630/630/158 629/629/158
f 632/632/158 631/631/158 629/629/158
f 635/635/159 634/634/159 633/633/159
f 636/636/159 635/635/159 633/633/159
f 639/639/160 638/638/160 637/637/160
f 640/640/160 639/639/160 637/637/160
f 643/643/161 642/642/161 641/641/161
f 644/644/161 643/643/161 641/641/161
f 647/647/162 646/646/162 645/645/162
f 648/648/162 647/647/162 645/645/162
f 651/651/163 650/650/163 649/649/163
f 652/652/163 651/651/163 649/649/163
f 655/655/164 654/654/164 653/653/164
f 656/656/164 655/655/164 653/653/164
f 659/659/165 658/658/165 657/657/165
f 660/660/165 659/659/165 657/657/165
f 663/663/166 662/662/166 661/661/166
f 664/664/166 663/663/166 661/661/166
f 667/667/167 666/666/167 665/665/167
f 668/668/167 667/667/167 665/665/167
f 671/671/168 670/670/168 669/669/168
f 672/672/168 671/671/168 669/669/168
f 675/675/169 674/674/169 673/673/169
f 676/676/169 675/675/169 673/673/169
f 679/679/170 678/678/170 677/677/170
f 680/680/170 679/679/170 677/677/170
f 683/683/171 682/682/171 681/681/171
f 684/684/171 683/683/171 681/681/171
f 687/687/172 686/686/172 685/685/172
f 688/688/172 687/687/172 685/685/172
f 691/691/173 690/690/173 689/689/173
f 692/692/173 691/691/173 689/689/173
f 695/695/174 694/694/174 693/693/174
f 696/696/174 695/695/174 693/693/174
f 699/699/175 698/698/175 697/697/175
f 700/700/175 699/699/175 697/697/175
f 703/703/176 702/702/176 701/701/176
f 704/704/176 703/703/176 701/701/176
f 707/707/177 706/706/177 705/705/177
f 708/708/177 707/707/177 705/705/177
f 711/711/178 710/710/178 709/709/178
f 712/712/178 711/711/178 709/709/178
f 715/715/179 714/714/179 713/713/179
f 716/716/179 715/715/179 713/713/179
f 719/719/180 718/718/180 717/717/180
f 720/720/180 719/719/180 717/717/180
f 723/723/181 722/722/181 721/721/181
f 724/724/181 723/723/181 721/721/181
f 727/727/182 726/726/182 725/725/182
f 728/728/182 727/727/182 725/725/182
f 731/731/183 730/730/183 729/729/183
f 732/732/183 731/731/183 729/729/183
f 735/735/184 734/734/184 733/733/184
f 736/736/184 735/735/184 733/733/184
f 739/739/185 738/738/185 737/737/185
f 740/740/185 739/739/185 737/737/185
f 743/743/186 742/742/186 741/741/186
f 744/744/186 743/743/186 741/741/186
f 747/747/187 746/746/187 745/745/187
f 748/748/187 747/747/187 745/745/187
f 751/751/188 750/750/188 749/749/188
f 752/752/188 751/751/188 749/749/188
f 755/755/189 754/754/189 753/753/189
f 756/756/189 755/755/189 753/753/189
f 759/759/190 758/758/190 757/757/190
f 760/760/190 759/759/190 757/757/190
f 763/763/191 762/762/191 761/761/191
f 764/764/191 763/763/191 761/761/191
f 767/767/192 766/766/192 765/765/192
f 768/768/192 767/767/192 765/765/192
f 771/771/193 770/770/193 769/769/193
f 772/772/193 771/771/193 769/769/193
f 775/775/194 774/774/194 773/773/194
f 776/776/194 775/775/194 773/773/194
f 779/779/195 778/778/195 777/777/195
f 780/780/195 779/779/195 777/777/195
f 783/783/196 782/782/196 781/781/196
f 784/784/196 783/783/196 781/781/196
f 787/787/197 786/786/197 785/785/197
f 788/788/197 787/787/197 785/785/197
f 791/791/198 790/790/198 789/789/198
f 792/792/198 791/791/198 789/789/198
f 795/795/199 794/794/199 793/793/199
f 796/796/199 795/795/199 793/793/199
f 799/799/200 798/798/200 797/797/200
f 800/800/200 799/799/200 797/797/200

