mtllib erj195.mtl

v 0.293980 -0.956234 -13.584980
v 0.293980 -0.955573 -13.434520
v 0.000050 -1.001715 -13.434520
v 0.000050 -1.002220 -13.584980
v 0.293980 -0.947359 -13.963780
v 0.293980 -0.956234 -13.584980
v 0.000050 -1.002220 -13.584980
v 0.000656 -0.993161 -13.963780
v 0.000656 -0.993161 -13.963780
v 0.000050 -1.002220 -13.584980
v -0.000048 -0.974068 -13.584880
v 0.000557 -0.964908 -13.963680
v 0.293980 -0.956234 -13.584980
v 0.293980 -0.947359 -13.963780
v 0.293880 -0.919107 -13.963680
v 0.293880 -0.928082 -13.584880
v 0.293980 -0.947359 -13.963780
v 0.000656 -0.993161 -13.963780
v 0.000557 -0.964908 -13.963680
v 0.293880 -0.919107 -13.963680
v 0.000050 -1.002220 -13.584980
v 0.000050 -1.001715 -13.434520
v -0.000048 -0.973462 -13.434420
v -0.000048 -0.974068 -13.584880
v 0.000050 -1.001715 -13.434520
v 0.293980 -0.955573 -13.434520
v 0.293880 -0.927321 -13.434420
v -0.000048 -0.973462 -13.434420
v 0.293980 -0.955573 -13.434520
v 0.293980 -0.956234 -13.584980
v 0.293880 -0.928082 -13.584880
v 0.293880 -0.927321 -13.434420
v 0.000557 -0.964908 -13.963680
v -0.000048 -0.974068 -13.584880
v 0.293880 -0.928082 -13.584880
v 0.293880 -0.919107 -13.963680
v -0.000048 -0.974068 -13.584880
v -0.000048 -0.973462 -13.434420
v 0.293880 -0.927321 -13.434420
v 0.293880 -0.928082 -13.584880

vt 0.242252 0.948556
vt 0.246645 0.948518
vt 0.246645 0.951215
vt 0.242252 0.951244
vt 0.231194 0.948037
vt 0.242252 0.948556
vt 0.242252 0.951244
vt 0.231194 0.950715
vt 0.231194 0.950715
vt 0.242252 0.951244
vt 0.242255 0.949599
vt 0.231197 0.949063
vt 0.242252 0.948556
vt 0.231194 0.948037
vt 0.231197 0.946386
vt 0.242255 0.946911
vt 0.231194 0.948037
vt 0.231194 0.950715
vt 0.231197 0.949063
vt 0.231197 0.946386
vt 0.242252 0.951244
vt 0.246645 0.951215
vt 0.246648 0.949563
vt 0.242255 0.949599
vt 0.246645 0.951215
vt 0.246645 0.948518
vt 0.246648 0.946866
vt 0.246648 0.949563
vt 0.246645 0.948518
vt 0.242252 0.948556
vt 0.242255 0.946911
vt 0.246648 0.946866
vt 0.231197 0.949063
vt 0.242255 0.949599
vt 0.242255 0.946911
vt 0.231197 0.946386
vt 0.242255 0.949599
vt 0.246648 0.949563
vt 0.246648 0.946866
vt 0.242255 0.946911

vn 0.155080 -0.987892 0.004339
vn 0.154531 -0.987717 -0.023141
vn -0.999993 -0.003475 -0.001683
vn 0.999994 0.003539 0.000083
vn -0.000552 0.003538 -0.999994
vn -0.999994 -0.003469 0.000012
vn 0.000555 -0.003538 0.999994
vn 0.999994 0.003552 -0.000016
vn -0.154530 0.987705 0.023638
vn -0.155080 0.987894 -0.003976

usemtl mat1
f 1/1/1 2/2/1 3/3/1
f 1/1/1 3/3/1 4/4/1
f 5/5/2 6/6/2 7/7/2
f 5/5/2 7/7/2 8/8/2
f 9/9/3 10/10/3 11/11/3
f 9/9/3 11/11/3 12/12/3
f 13/13/4 14/14/4 15/15/4
f 13/13/4 15/15/4 16/16/4
f 17/17/5 18/18/5 19/19/5
f 17/17/5 19/19/5 20/20/5
f 21/21/6 22/22/6 23/23/6
f 21/21/6 23/23/6 24/24/6
f 25/25/7 26/26/7 27/27/7
f 25/25/7 27/27/7 28/28/7
f 29/29/8 30/30/8 31/31/8
f 29/29/8 31/31/8 32/32/8
f 33/33/9 34/34/9 35/35/9
f 33/33/9 35/35/9 36/36/9
f 37/37/10 38/38/10 39/39/10
f 37/37/10 39/39/10 40/40/10

